<?xml version="1.0" encoding="UTF-8"?>
<svg id="Layer_2" data-name="Layer 2" xmlns="http://www.w3.org/2000/svg" viewBox="0 0 329.23 329.23">
  <defs>
    <style>
      .cls-1 {
        fill: #fff;
      }

      .cls-1, .cls-2 {
        fill-rule: evenodd;
      }

      .cls-2 {
        fill: #00468c;
      }
    </style>
  </defs>
  <g id="Layer_1-2" data-name="Layer 1">
    <g>
      <path class="cls-2" d="M51.69,0h225.84c14.22,0,27.15,5.82,36.51,15.18,9.36,9.36,15.18,22.29,15.18,36.51v225.84c0,14.22-5.82,27.15-15.18,36.51-9.37,9.36-22.29,15.18-36.51,15.18H51.69c-14.22,0-27.15-5.82-36.51-15.18-9.36-9.37-15.18-22.29-15.18-36.51V51.69c0-14.22,5.82-27.15,15.18-36.51C24.54,5.82,37.47,0,51.69,0Z"/>
      <path class="cls-1" d="M180.8,120.11h-32.37v23.86h32.37v-23.86h0ZM148.43,85.15h32.37v-13.28h-32.37v13.28h0ZM180.8,243.71h-32.37v13.65h32.37v-13.65h0ZM148.43,208.75h32.37v-23.49h-32.37v23.49h0ZM315.48,98.68h-121.14v131.86h121.14V98.68h0ZM214.18,148.91c12.91-10.84,14.5-21.62.29-32.31l8.09-10.79c23.79,17.9,21.42,35.71.29,53.46l-8.67-10.36h0ZM244.4,148.91c12.91-10.84,14.5-21.62.29-32.31l8.09-10.79c23.8,17.9,21.42,35.71.29,53.46l-8.67-10.36h0ZM274.62,148.94c7.02-5.9,10.93-11.42,11.1-16.5.17-4.88-3.24-10.14-10.81-15.84l8.09-10.79c11.43,8.6,16.53,17.64,16.2,27.05-.32,9.21-5.92,17.99-15.91,26.39l-8.67-10.31h0ZM214.18,211.85c12.91-10.84,14.5-21.62.29-32.31l8.09-10.79c23.79,17.9,21.42,35.71.29,53.46l-8.67-10.36h0ZM244.4,211.85c12.91-10.84,14.5-21.62.29-32.31l8.09-10.79c23.8,17.9,21.42,35.71.29,53.46l-8.67-10.36h0ZM274.62,211.88c7.02-5.9,10.93-11.42,11.1-16.5.17-4.88-3.24-10.14-10.81-15.84l8.09-10.79c11.43,8.6,16.53,17.64,16.2,27.05-.32,9.21-5.92,17.99-15.91,26.39l-8.67-10.31h0ZM110.75,159.28c-21.12-17.74-23.5-35.56.29-53.46l8.09,10.79c-14.21,10.69-12.61,21.47.29,32.31l-8.67,10.36h0ZM80.53,159.28l8.67-10.36c-12.91-10.84-14.5-21.62-.29-32.31l-8.09-10.79c-23.79,17.9-21.42,35.71-.29,53.46h0ZM50.31,159.28c-10-8.4-15.59-17.18-15.91-26.41-.32-9.41,4.78-18.45,16.2-27.05l8.09,10.79c-7.57,5.7-10.98,10.96-10.81,15.84.18,5.06,4.08,10.58,11.1,16.47l-8.67,10.36h0ZM110.75,222.21c-21.12-17.74-23.5-35.56.29-53.46l8.09,10.79c-14.21,10.69-12.61,21.47.29,32.31l-8.67,10.36h0ZM80.53,222.21l8.67-10.36c-12.91-10.84-14.5-21.62-.29-32.31l-8.09-10.79c-23.79,17.9-21.42,35.71-.29,53.46h0ZM50.31,222.21c-10-8.4-15.59-17.18-15.91-26.41-.32-9.41,4.78-18.45,16.2-27.05l8.09,10.79c-7.57,5.7-10.98,10.96-10.81,15.84.18,5.06,4.08,10.58,11.1,16.47l-8.67,10.36h0ZM134.89,98.68H13.75v131.86h121.14V98.68Z"/>
    </g>
  </g>
</svg>