<?xml version="1.0" encoding="UTF-8"?>
<svg id="Layer_2" data-name="Layer 2" xmlns="http://www.w3.org/2000/svg" viewBox="0 0 329.23 329.23">
  <defs>
    <style>
      .cls-1 {
        fill: #fff;
      }

      .cls-1, .cls-2 {
        fill-rule: evenodd;
      }

      .cls-2 {
        fill: #00468c;
      }
    </style>
  </defs>
  <g id="Layer_1-2" data-name="Layer 1">
    <g>
      <path class="cls-2" d="M51.69,0h225.84c14.22,0,27.15,5.82,36.51,15.18,9.36,9.36,15.18,22.29,15.18,36.51v225.84c0,14.22-5.82,27.15-15.18,36.51-9.37,9.36-22.29,15.18-36.51,15.18H51.69c-14.22,0-27.15-5.82-36.51-15.18-9.36-9.37-15.18-22.29-15.18-36.51V51.69c0-14.22,5.81-27.15,15.18-36.51C24.54,5.82,37.47,0,51.69,0Z"/>
      <path class="cls-1" d="M210.97,77.69v-33.31h68.66v43.68c1.63,1.67,2.57,3.93,2.57,6.33v1.07c0,2.4-.95,4.66-2.57,6.33v94.98c1.63,1.67,2.57,3.93,2.57,6.33v1.07c0,2.4-.95,4.66-2.57,6.33v2.79h-35.9v-7.98l26.24.02h1.7l1.45-.04c.62,0,1.13-.51,1.13-1.13v-1.07c0-.62-.5-1.13-1.13-1.13h-1.45v-103.05h-.15s-27.79,0-27.79,0v-8.02h27.79l.15-38.58h-52.73l.1,25.35h-8.06Z"/>
      <path class="cls-1" d="M81.8,129.1l-.47,14.3-32.18,5.76.75-22.77,31.9,2.71h0ZM88.23,142.17l.41-12.49,20.02,1.7-.24,7.17-20.19,3.61h0ZM135.69,133.68l-22.9,4.1.2-6.03,22.71,1.93h0ZM112.71,140.03l-.23,6.89,23.59-11.07-23.36,4.18h0ZM87.69,158.56l20.39-9.57.27-8.18-20.19,3.61-.46,14.14h0ZM81.26,145.66l-32.18,5.76-.84,25.66,32.5-15.25.53-16.17h0ZM80.64,164.32l-.71,21.68-32.91,27.75,1.12-34.18,32.5-15.25h0ZM86.98,180.05l.63-19,20.39-9.57-.37,11.16-20.65,17.41h0ZM112.4,149.41l24.6-11.55-24.91,21.01.31-9.46Z"/>
      <path class="cls-1" d="M175.07,142.71v-7.6c-1.63-1.68-2.57-3.94-2.57-6.33v-1.07c0-2.4.95-4.66,2.57-6.33v-43.68h68.66v43.68c1.63,1.67,2.57,3.93,2.57,6.33v1.07c0,2.4-.95,4.66-2.57,6.33v94.98c1.63,1.67,2.57,3.93,2.57,6.33v1.07c0,2.4-.95,4.66-2.57,6.33v2.79h-53.43v-73.22c1.63-1.65,2.57-3.89,2.57-6.26v-1.07c0-3.11-1.62-5.98-4.26-7.6l-.85-.52h-.35c-1.1-2.38-2.54-4.65-4.17-6.67-1.52-1.89-3.3-3.67-5.27-5.11-.66-1.4-1.68-2.59-2.91-3.46h0ZM235.77,132.25h-.15s-52.44,0-52.44,0l-.03,18.91.1.12c1.63,2.02,3.07,4.29,4.17,6.67h.35l.85.52c2.64,1.62,4.26,4.49,4.26,7.6v1.07c0,2.38-.95,4.62-2.57,6.26v65.23l43.77.03h1.7l1.45-.04c.62,0,1.13-.51,1.13-1.13v-1.07c0-.62-.51-1.13-1.13-1.13h-1.45v-103.05h0ZM183.18,124.23h52.44l.15-38.58h-52.73l.15,38.58Z"/>
      <path class="cls-1" d="M121.98,282.16c-1.63-1.65-2.57-3.88-2.57-6.26v-1.07c0-2.38.95-4.62,2.57-6.26v-95.15c-1.63-1.65-2.57-3.89-2.57-6.26v-1.07c0-3.11,1.62-5.98,4.26-7.6l.85-.52h.19c1.07-2.47,2.51-4.83,4.19-6.9,1.59-1.98,3.48-3.8,5.59-5.24,1.52-2.88,4.54-4.74,7.87-4.74h.25v-10.53h27.08v10.53h.25c3.48,0,6.6,2.03,8.05,5.1,1.97,1.45,3.75,3.22,5.27,5.11,1.63,2.02,3.07,4.29,4.17,6.67h.35l.85.52c2.64,1.62,4.26,4.49,4.26,7.6v1.07c0,2.38-.95,4.62-2.57,6.26v95.15c1.63,1.65,2.57,3.89,2.57,6.26v1.07c0,2.38-.95,4.62-2.57,6.26v2.69h-68.32v-2.69h0ZM180.81,277.06h1.7v-.04h1.45c.62,0,1.13-.51,1.13-1.13v-1.07c0-.62-.51-1.13-1.13-1.13h-1.45v-105.43h1.45c.62,0,1.13-.51,1.13-1.13v-1.07c0-.62-.51-1.13-1.13-1.13h-1.45v-.04h-.92c-.56-2.86-2.27-6.1-4.4-8.74-1.83-2.28-4.03-4.17-6.14-5.09v-1.1c0-.62-.51-1.13-1.13-1.13h-8.03v-10.54h-11.51v10.54h-8.03c-.62,0-1.13.51-1.13,1.13v1.01c-2.23.85-4.45,2.67-6.27,4.94-2.13,2.64-3.78,5.96-4.29,8.98h-.9v.04h-1.45c-.62,0-1.13.51-1.13,1.13v1.07c0,.62.51,1.13,1.13,1.13h1.45v105.43h-1.45c-.62,0-1.13.51-1.13,1.13v1.07c0,.62.51,1.13,1.13,1.13h1.45v.04h51.05Z"/>
    </g>
  </g>
</svg>