<?xml version="1.0" encoding="UTF-8"?>
<svg id="Layer_2" data-name="Layer 2" xmlns="http://www.w3.org/2000/svg" viewBox="0 0 329.23 329.23">
  <defs>
    <style>
      .cls-1 {
        fill: #fff;
      }

      .cls-1, .cls-2 {
        fill-rule: evenodd;
      }

      .cls-2 {
        fill: #00468c;
      }
    </style>
  </defs>
  <g id="Layer_1-2" data-name="Layer 1">
    <g>
      <path class="cls-2" d="M51.69,0h225.84c14.22,0,27.15,5.82,36.51,15.18,9.36,9.36,15.18,22.29,15.18,36.51v225.84c0,14.22-5.82,27.15-15.18,36.51-9.37,9.36-22.29,15.18-36.51,15.18H51.69c-14.22,0-27.15-5.82-36.51-15.18-9.36-9.37-15.18-22.29-15.18-36.51V51.69c0-14.22,5.82-27.15,15.18-36.51C24.54,5.82,37.47,0,51.69,0Z"/>
      <g>
        <path class="cls-1" d="M226.24,182.85c12.01,1.08,22.45,6.92,29.62,15.5,7.17,8.58,11.06,19.89,9.99,31.9-1.08,12.01-6.92,22.45-15.5,29.62-8.58,7.17-19.89,11.06-31.9,9.99-12.01-1.08-22.45-6.92-29.62-15.5-7.16-8.58-11.06-19.89-9.98-31.9,1.08-12.01,6.92-22.45,15.5-29.62,8.58-7.17,19.89-11.06,31.9-9.99h0ZM249.34,203.79c-5.77-6.91-14.18-11.61-23.85-12.48-9.67-.87-18.79,2.27-25.69,8.04-6.91,5.77-11.61,14.18-12.48,23.85-.87,9.68,2.27,18.79,8.04,25.69,5.77,6.91,14.18,11.61,23.85,12.48,9.67.87,18.79-2.27,25.69-8.04,6.91-5.77,11.61-14.18,12.48-23.85.87-9.68-2.27-18.79-8.04-25.69Z"/>
        <path class="cls-1" d="M239.41,206.18c7.13.64,12.05,10.79,10.98,22.68-1.06,11.89-7.71,21.01-14.84,20.37-7.13-.64-12.05-10.79-10.98-22.68,1.06-11.89,7.71-21.01,14.84-20.37h0ZM237.93,214.88c-.24-.02-.47-.03-.7-.03,4.38.86,7.38,6.7,6.78,13.44-.6,6.74-4.59,11.95-9.06,12.02.23.04.46.07.7.09,5.43.49,10.35-4.83,10.98-11.88.63-7.05-3.26-13.16-8.69-13.64Z"/>
        <path class="cls-1" d="M219.59,196.71c-12.41-1.11-23.64,11.04-25.08,27.14-1.44,16.1,7.45,30.05,19.86,31.17.54.05,1.08.07,1.61.07-10.02-1.97-16.87-15.3-15.49-30.7,1.38-15.4,10.49-27.3,20.7-27.46-.52-.09-1.06-.17-1.59-.22Z"/>
      </g>
      <path class="cls-1" d="M32.13,24.14l30.59-8.53c3.98-1.11,8.14,1.23,9.25,5.21h0c1.11,3.98-1.23,8.14-5.21,9.25l-30.59,8.53c-3.98,1.11-8.14-1.23-9.25-5.21h0c-1.11-3.98,1.23-8.14,5.22-9.25Z"/>
      <path class="cls-1" d="M32.39,49.69l30.59-8.53c3.98-1.11,8.14,1.23,9.25,5.21h0c1.11,3.98-1.23,8.14-5.21,9.25l-30.59,8.54c-3.98,1.11-8.14-1.23-9.25-5.21h0c-1.11-3.98,1.23-8.14,5.22-9.25Z"/>
      <path class="cls-1" d="M32.65,75.25l30.59-8.54c3.98-1.11,8.14,1.23,9.25,5.21h0c1.11,3.98-1.23,8.14-5.21,9.25l-30.59,8.54c-3.98,1.11-8.14-1.23-9.25-5.21h0c-1.11-3.98,1.23-8.14,5.21-9.25Z"/>
      <path class="cls-1" d="M32.92,100.8l30.59-8.53c3.98-1.11,8.14,1.23,9.25,5.21h0c1.11,3.98-1.23,8.14-5.22,9.25l-30.59,8.53c-3.98,1.11-8.14-1.23-9.25-5.21h0c-1.11-3.98,1.23-8.14,5.21-9.25Z"/>
      <path class="cls-1" d="M33.18,126.35l30.59-8.53c3.98-1.11,8.14,1.23,9.25,5.21h0c1.11,3.98-1.24,8.14-5.22,9.25l-30.59,8.54c-3.98,1.11-8.14-1.23-9.25-5.21h0c-1.11-3.98,1.23-8.14,5.21-9.25Z"/>
      <path class="cls-1" d="M33.45,151.91l30.59-8.54c3.98-1.11,8.14,1.23,9.25,5.21h0c1.11,3.98-1.23,8.14-5.21,9.25l-30.59,8.54c-3.98,1.11-8.14-1.23-9.25-5.21h0c-1.11-3.98,1.23-8.14,5.22-9.25Z"/>
      <path class="cls-1" d="M73.8,186.69l-23.97,20.83c-3.12,2.71-3.45,7.47-.75,10.59h0c2.71,3.12,7.47,3.46,10.59.75l23.97-20.83c3.12-2.71,3.45-7.47.74-10.59h0c-2.71-3.12-7.47-3.46-10.59-.75Z"/>
      <path class="cls-1" d="M66.41,169.71l-30.42,9.1c-3.96,1.18-6.22,5.39-5.04,9.34h0c1.18,3.96,5.39,6.23,9.34,5.05l30.42-9.1c3.96-1.18,6.22-5.39,5.04-9.34h0c-1.18-3.96-5.39-6.23-9.34-5.04Z"/>
      <path class="cls-1" d="M86.34,201.86l-11.03,29.78c-1.43,3.88.56,8.21,4.43,9.65h0c3.87,1.44,8.21-.56,9.65-4.43l11.02-29.78c1.44-3.88-.56-8.21-4.43-9.65h0c-3.87-1.44-8.21.56-9.65,4.43Z"/>
      <path class="cls-1" d="M111.89,203.3l-8.53,30.59c-1.11,3.98,1.23,8.14,5.21,9.25h0c3.98,1.11,8.14-1.23,9.25-5.21l8.53-30.59c1.11-3.98-1.23-8.14-5.21-9.25h0c-3.98-1.11-8.14,1.23-9.25,5.21Z"/>
      <path class="cls-1" d="M137.45,203.56l-8.53,30.59c-1.11,3.98,1.23,8.14,5.21,9.25h0c3.98,1.11,8.14-1.23,9.25-5.21l8.54-30.59c1.11-3.98-1.23-8.14-5.21-9.25h0c-3.98-1.11-8.14,1.23-9.25,5.21Z"/>
      <path class="cls-1" d="M163,203.82l-8.54,30.59c-1.11,3.98,1.23,8.14,5.21,9.25h0c3.98,1.11,8.14-1.23,9.25-5.21l8.54-30.59c1.11-3.98-1.23-8.14-5.21-9.25h0c-3.98-1.11-8.14,1.23-9.25,5.21Z"/>
    </g>
  </g>
</svg>