<?xml version="1.0" encoding="UTF-8"?>
<svg id="Layer_2" data-name="Layer 2" xmlns="http://www.w3.org/2000/svg" viewBox="0 0 329.23 329.23">
  <defs>
    <style>
      .cls-1 {
        fill: #fff;
      }

      .cls-1, .cls-2 {
        fill-rule: evenodd;
      }

      .cls-2 {
        fill: #00468c;
      }
    </style>
  </defs>
  <g id="Layer_1-2" data-name="Layer 1">
    <g>
      <path class="cls-2" d="M277.53,329.23H51.69c-14.22,0-27.15-5.82-36.51-15.18-9.36-9.36-15.18-22.29-15.18-36.51V51.69c0-14.22,5.82-27.15,15.18-36.51C24.55,5.82,37.47,0,51.69,0h225.84c14.22,0,27.15,5.82,36.51,15.18,9.36,9.37,15.18,22.29,15.18,36.51v225.84c0,14.22-5.82,27.15-15.18,36.51-9.36,9.36-22.29,15.18-36.51,15.18Z"/>
      <path class="cls-1" d="M306.85,215.33l-38.49,38.49-.03-.03-1.09,1.09c-.47.47-1.23.47-1.7,0l-.81-.81c-.47-.47-.47-1.23,0-1.7l1.09-1.09-79.49-79.48-1.09,1.09c-.47.47-1.23.47-1.7,0l-.81-.81c-.47-.47-.47-1.23,0-1.7l1.09-1.09-.03-.03.67-.67c-1.89-2.67-3.15-6.41-3.53-10.02-.33-3.08-.04-6.13,1.01-8.45l-.76-.76c-.47-.47-.47-1.23,0-1.7l6.05-6.05-7.94-7.94,8.68-8.68,7.94,7.94,6.05-6.06c.47-.47,1.23-.47,1.7,0l.81.81.02.02c2.28-.9,5.36-1.13,8.46-.79,3.6.39,7.35,1.54,9.92,3.27l.69-.69.03.03,1.09-1.09c.47-.47,1.23-.47,1.7,0l.81.81c.47.47.47,1.23,0,1.7l-1.09,1.09,79.49,79.48,1.09-1.09c.47-.47,1.23-.47,1.7,0l.81.81c.47.47.47,1.23,0,1.7l-1.09,1.09.03.03-1.28,1.28Z"/>
      <path class="cls-1" d="M153.99,201.81l-15.12-7.82-24.66,30.07,24.08,12.44,15.7-34.69h0ZM144.15,187.55l15.47-18.87,7.59,3.92-9.85,21.77-13.2-6.82h0ZM180.51,143.2l-17.55,21.4,6.37,3.29,11.18-24.69h0ZM160.58,163.37l-7.28-3.77,25.18-18.06-17.9,21.83h0ZM126.82,178.59l14.94,7.72,15.47-18.87-8.65-4.47-21.77,15.61h0ZM136.48,192.76l-24.66,30.07-27.13-14.02,34.69-24.88,17.1,8.83h0ZM116.75,182.57l-34.69,24.88-36.14-18.67,47.91-18.05,22.92,11.85h0ZM104.11,166.85l20.09,10.38,21.77-15.61-11.79-6.09-30.07,11.33h0ZM150.67,158.25l-10-5.17,36.26-13.66-26.26,18.83Z"/>
      <polygon class="cls-1" points="156.05 256.03 14.12 182.69 14.12 189.16 153.67 261.27 156.05 256.03"/>
    </g>
  </g>
</svg>