<?xml version="1.0" encoding="UTF-8"?>
<svg id="Layer_2" data-name="Layer 2" xmlns="http://www.w3.org/2000/svg" viewBox="0 0 329.23 329.23">
  <defs>
    <style>
      .cls-1 {
        fill: #fff;
      }

      .cls-1, .cls-2 {
        fill-rule: evenodd;
      }

      .cls-2 {
        fill: #00468c;
      }
    </style>
  </defs>
  <g id="Layer_1-2" data-name="Layer 1">
    <g>
      <path class="cls-2" d="M51.69,0h225.84c14.22,0,27.15,5.82,36.51,15.18,9.36,9.36,15.18,22.29,15.18,36.51v225.84c0,14.22-5.82,27.15-15.18,36.51-9.37,9.36-22.29,15.18-36.51,15.18H51.69c-14.22,0-27.15-5.82-36.51-15.18-9.36-9.37-15.18-22.29-15.18-36.51V51.69c0-14.22,5.82-27.15,15.18-36.51C24.54,5.82,37.47,0,51.69,0Z"/>
      <path class="cls-1" d="M182.13,261.82l-55.96,53.29h-21.55l67.26-64.05c-1.8-7.12.54-16.65,6.29-27.26,6.62-12.2,17.87-26.56,32.19-40.19,14.32-13.64,29.21-24.17,41.72-30.18,14.85-7.13,27.39-8.02,34.12-.96,6.72,7.06,5.23,19.55-2.62,34.03-6.62,12.19-17.87,26.56-32.19,40.19-14.32,13.64-29.22,24.17-41.72,30.18-10.87,5.22-20.51,7.09-27.53,4.95h0ZM185.91,246.93l1.02,1.08c2.37,1.09,8.31-.65,16.28-4.48,11.14-5.36,24.66-14.98,37.92-27.61,13.26-12.63,23.53-25.66,29.43-36.52,4.65-8.58,6.64-14.82,4.87-16.68-1.77-1.86-8.11-.18-16.9,4.05-11.14,5.36-24.66,14.98-37.92,27.61-13.26,12.63-23.53,25.66-29.43,36.53-4.21,7.76-6.24,13.62-5.27,16.04Z"/>
      <path class="cls-1" d="M133.36,62.74c18.45,0,35.59,5.11,50,11.84,26.49,12.37,44.23,32.16,44.5,35.15l.07.85-.12.76c-.35,2.28-18.46,22.39-45.25,34.89-14.24,6.65-31.08,11.68-49.21,11.68-19.21,0-36.94-5.23-51.64-12.1-25.28-11.8-42.13-29.94-42.82-34.52l-.11-.76.05-.69c.19-2.54,18.16-22.83,44.98-35.35,14.32-6.68,31.29-11.76,49.53-11.76h0ZM166.32,80.14c6.83,6.51,11.04,14.93,12.41,23.8,1.63,10.56-.76,21.74-7.57,31.03-1.42,1.94-2.98,3.72-4.64,5.34,4.22-1.46,8.27-3.13,12.11-4.92,21.06-9.83,35.53-21.97,38.42-25.3-2.76-3.41-16.98-15.05-37.63-24.69-4.14-1.93-8.52-3.72-13.1-5.26h0ZM112.93,144.07l-.1-.07c-9.3-6.81-14.96-16.74-16.59-27.3-1.63-10.55.76-21.74,7.57-31.03,2.54-3.47,5.52-6.43,8.8-8.87-8.92,1.95-17.28,5-24.84,8.53-21.31,9.95-35.91,21.99-38.24,24.92,2.44,3.93,16.02,15.35,36.13,24.74,8.18,3.82,17.37,7.09,27.26,9.09h0ZM170.7,105.18c-1.31-8.5-5.87-16.5-13.36-21.98-7.49-5.48-16.49-7.41-24.99-6.1-8.5,1.32-16.5,5.87-21.99,13.36-5.48,7.49-7.41,16.49-6.1,24.99,1.31,8.5,5.87,16.5,13.36,21.99,7.49,5.48,16.49,7.41,24.99,6.1,8.5-1.31,16.5-5.87,21.99-13.36,5.48-7.49,7.41-16.49,6.1-24.99Z"/>
      <path class="cls-1" d="M161.4,102.23c5.52,4.04,4.53,14.78-2.21,23.98-6.74,9.2-16.68,13.39-22.2,9.34-5.52-4.04-4.53-14.78,2.21-23.98,6.74-9.2,16.68-13.39,22.2-9.34h0ZM155.89,108.62c-.18-.13-.37-.26-.56-.37,3.16,2.87,2.74,9.12-1.08,14.34-3.82,5.22-9.66,7.51-13.35,5.37.17.15.34.29.53.42,4.21,3.08,10.85,1.15,14.85-4.3,4-5.46,3.83-12.38-.38-15.45Z"/>
      <path class="cls-1" d="M149.85,84.7c-9.61-7.03-24.79-2.63-33.92,9.83-9.13,12.47-8.74,28.27.87,35.3.41.3.84.59,1.28.85-7.22-6.56-6.25-20.84,2.48-32.76,8.73-11.93,22.06-17.16,30.49-12.26-.38-.34-.78-.66-1.2-.97Z"/>
    </g>
  </g>
</svg>