<?xml version="1.0" encoding="UTF-8"?>
<svg id="Layer_2" data-name="Layer 2" xmlns="http://www.w3.org/2000/svg" viewBox="0 0 329.23 329.23">
  <defs>
    <style>
      .cls-1 {
        fill: #fff;
      }

      .cls-1, .cls-2 {
        fill-rule: evenodd;
      }

      .cls-2 {
        fill: #00468c;
      }
    </style>
  </defs>
  <g id="Layer_1-2" data-name="Layer 1">
    <g>
      <path class="cls-2" d="M51.69,0h225.84c14.22,0,27.15,5.82,36.51,15.18,9.36,9.36,15.18,22.29,15.18,36.51v225.84c0,14.22-5.82,27.15-15.18,36.51-9.37,9.36-22.29,15.18-36.51,15.18H51.69c-14.22,0-27.15-5.82-36.51-15.18-9.36-9.37-15.18-22.29-15.18-36.51V51.69c0-14.22,5.82-27.15,15.18-36.51C24.54,5.82,37.47,0,51.69,0Z"/>
      <path class="cls-1" d="M164.86,83.11h0c8.27,0,16.3,1.13,23.92,3.23.58,2.14.83,4.47.84,6.15v4.46c-.61-.2-1.23-.39-1.85-.58l-1.97,6.48c1.28.38,2.57.8,3.85,1.27l.04,11.43c-7.63-3.29-16.03-5.11-24.83-5.11h0c-.45,0-.89,0-1.33.01l-.05-18.03c0-3.04-.31-6.18-.91-9.28.76-.02,1.53-.03,2.3-.03h0ZM90.62,171.98c.09-4.25.58-8.67,1.44-12.83l-6.63-1.37c-.94,4.55-1.48,9.39-1.58,14.04l6.76.17h0ZM234.96,150.83c1.36,4.07,2.32,8.33,2.93,12.58l6.7-.93c-.64-4.61-1.73-9.34-3.2-13.75l-6.43,2.1h0ZM226.56,133.39c2.36,3.58,4.42,7.44,6.12,11.38l6.23-2.65c-1.86-4.32-4.09-8.51-6.68-12.43l-5.66,3.71h0ZM213.92,118.69c3.26,2.94,6.12,6.01,8.85,9.44l5.33-4.18c-3.1-3.78-6-7-9.64-10.29l-4.54,5.02h0ZM238.62,210.29h6.77v13.54h-6.77v-13.54h0ZM238.62,230.59h6.77v13.54h-6.77v-13.54h0ZM238.62,189.98h6.77v13.54h-6.77v-13.54h0ZM90.6,212.51h-6.77v-13.54h6.77v13.54h0ZM90.6,232.81h-6.77v-13.54h6.77v13.54h0ZM166.7,99.78c4.06,0,8.84.68,12.82,1.49l1.4-6.62c-4.22-.91-9.72-1.63-14.03-1.63l-.19,6.77h0ZM90.6,192.2h-6.77v-13.54h6.77v13.54h0ZM129.38,108.74c3.72-2.07,7.81-3.82,11.84-5.17l-2.14-6.42c-4.4,1.48-8.88,3.4-12.93,5.65l3.24,5.94h0ZM238.52,169.85c.21,4.44.1,8.92.1,13.36h6.77c0-4.56.11-9.15-.11-13.71l-6.76.34h0ZM210.51,95.56c26.79,15.77,44.87,44.91,44.87,78.08v71.16h-27.33v-71.16c0-16.76-6.61-32.05-17.36-43.39-.06-.67-.09-1.34-.09-1.99l-.05-15.83,2.45-3.24c-.81-.61-1.63-1.21-2.46-1.79l-.04-11.84h0ZM142.65,114.49c-9.98,3.78-18.77,10.01-25.63,17.95v-15.25c2.17-1.84,4.46-3.56,6.81-5.11l-3.72-5.65c-1.05.7-2.07,1.41-3.08,2.16v-11.71c7.56-4.74,15.86-8.39,24.67-10.74.62,2.19.88,4.6.89,6.33l.07,22.02h0ZM104.62,154.58c-1.92,6.02-2.96,12.43-2.96,19.06v71.16h-11.05v-5.21h-6.77v5.21h-9.51v-71.16c0-22.46,8.3-43.08,21.97-58.95l.04,13.62c0,.76.03,1.53.06,2.31l-.64,1.03.74.45c.23,2.85.71,5.74,1.45,8.55l-5.61-2.84c-2.09,4.1-3.9,8.71-5.19,13.13l6.48,1.94c1.15-3.94,2.69-7.84,4.51-11.53,1.36,4.89,3.51,9.52,6.48,13.24h0ZM94.73,270.51c-2.29-3.33-3.75-6.77-4.08-10.82l-6.76.39c.44,5.35,2.21,9.83,5.24,14.24l5.59-3.82h0ZM235.6,268.8c-2.11,3.56-5,6.57-8.19,9.18l4.27,5.25c3.79-3.11,7.21-6.71,9.72-10.94l-5.8-3.49h0ZM185.45,294.44c-4.4.65-8.69,1.09-13.13,1.35l.35,6.76c4.58-.57,9.09-.73,13.8-1.42l-1.01-6.69h0ZM108.81,282.81c-3.61-2.15-7.14-4.65-10.11-7.63l-4.79,4.79c3.54,3.44,7.19,6.13,11.43,8.65l3.47-5.81h0ZM222.24,281.7c-3.62,2.32-7.55,4.25-11.51,5.9l2.58,6.26c4.32-1.8,8.6-3.91,12.55-6.44l-3.62-5.72h0ZM126.68,290.54c-4.13-1.27-8.27-2.85-12.17-4.71l-2.91,6.11c4.2,1.99,8.61,3.69,13.05,5.06l2.02-6.46h0ZM145.94,294.75c-4.31-.55-8.72-1.41-12.94-2.45l-1.63,6.57c4.37,1.12,9.17,2.01,13.65,2.59l.92-6.71h0ZM204.61,289.87c-4.18,1.38-8.37,2.51-12.68,3.4l1.37,6.63c4.57-.94,9.02-2.14,13.45-3.6l-2.13-6.42h0ZM165.7,295.99c-4.43,0-8.78-.13-13.2-.51l-.6,6.74c4.63.41,9.2.54,13.85.54l-.04-6.77h0ZM14.12,249.99h69.72v3.13h6.77v-3.13h148.02c.41,5.14.45,10.48-.47,13.23l6.53,1.77c.98-4.92.48-9.74.65-15h69.77v27.55c0,10.33-4.23,19.72-11.04,26.53-6.81,6.81-16.21,11.04-26.53,11.04H51.69c-10.33,0-19.72-4.23-26.53-11.04-6.81-6.81-11.04-16.21-11.04-26.53v-27.55h0ZM117.39,229.63v13.92h94.46v-13.92h-94.46ZM220.63,91.99l1.12.99c2.26,1.88,4.51,3.8,6.73,5.78.74.67,1.48,1.33,2.22,2.01l.33-59.06c2.38-1.63,3.95-4.36,3.95-7.47,0-4.99-4.05-9.04-9.04-9.04s-9.04,4.05-9.04,9.04c0,3.13,1.59,5.89,4.01,7.51l-.28,50.25h0ZM111.58,41.7l.3,86.58c.02,7.4,2.81,13.39,6.27,16.13.87.69,1.71,1.1,2.45,1.16.49.04,1.02-.12,1.53-.53,1.87-1.47,3.45-4.8,4.32-10.53l.13.17c2.26-1.86,4.57-3.7,6.94-5.51,1.05-.8,2.1-1.59,3.16-2.37l.58-.33-.05,1.2c-.54,13.67-4.16,21.67-8.81,25.35-2.66,2.1-5.61,2.92-8.63,2.67-2.77-.23-5.48-1.4-7.92-3.34-5.56-4.41-10.05-13.4-10.08-24.07l-.29-86.54c-2.42-1.62-4.01-4.38-4.01-7.51,0-4.99,4.05-9.04,9.04-9.04s9.04,4.05,9.04,9.04c0,3.11-1.57,5.85-3.96,7.47h0ZM158.14,103.24l-.04-10.79c-.04-10.67-4.52-19.65-10.08-24.07-5-3.97-8.3-4.77-13.51-.67-3.26,2.57-6.02,7.27-7.56,14.56,1.52-.6,3.05-1.19,4.59-1.76,2.43-.9,4.85-1.76,7.28-2.58.79-1.97,1.75-2.81,2.89-1.62,3.46,2.74,6.25,8.73,6.27,16.13l.04,10.79.05,14.38.04,10.66c.04,10.67,4.52,19.65,10.08,24.07,2.44,1.94,5.15,3.1,7.92,3.34,3.01.25,5.97-.57,8.63-2.67,4.65-3.67,8.27-11.67,8.81-25.35l.24-6.05c-2.62-.67-5.28-1.29-7.98-1.88l-2.06-.44-.31,7.99c-.4,10.28-2.42,15.75-4.97,17.75-.51.4-1.04.57-1.53.53-.74-.06-1.58-.47-2.45-1.16-3.46-2.74-6.25-8.73-6.28-16.13l-.04-10.66-.05-14.38h0ZM205.13,103.24l-.04-10.76c-.04-10.67-4.52-19.65-10.08-24.07-5-3.97-8.3-4.77-13.51-.67-2.04,1.6-3.88,4.04-5.34,7.42,1.06.15,2.13.3,3.19.47,2.36.37,4.7.76,7.03,1.19.67-1.09,1.44-1.39,2.32-.47,3.46,2.74,6.25,8.73,6.27,16.13l.04,10.76v2.82s.09,22.22.09,22.22c.04,10.83,4.87,19.94,10.73,24.3,2.46,1.83,5.16,2.92,7.91,3.12.36.03,1.16-.17,1.52-.17-.92-2.24-1.78-4.25-2.9-6.73-1.12-2.48-2.49-5.39-3.79-8.02h0c-1.99-3.14-3.34-7.5-3.36-12.5l-.08-22.22v-2.82Z"/>
    </g>
  </g>
</svg>