<?xml version="1.0" encoding="UTF-8"?>
<svg id="Layer_2" data-name="Layer 2" xmlns="http://www.w3.org/2000/svg" viewBox="0 0 329.23 329.23">
  <defs>
    <style>
      .cls-1, .cls-2 {
        fill: #fff;
      }

      .cls-1, .cls-3 {
        fill-rule: evenodd;
      }

      .cls-3 {
        fill: #00468c;
      }
    </style>
  </defs>
  <g id="Layer_1-2" data-name="Layer 1">
    <g>
      <path class="cls-3" d="M51.69,0h225.84c14.22,0,27.15,5.82,36.51,15.18,9.36,9.36,15.18,22.29,15.18,36.51v225.84c0,14.22-5.82,27.15-15.18,36.51-9.37,9.36-22.29,15.18-36.51,15.18H51.69c-14.22,0-27.15-5.82-36.51-15.18-9.36-9.37-15.18-22.29-15.18-36.51V51.69c0-14.22,5.82-27.15,15.18-36.51S37.47,0,51.69,0Z"/>
      <g>
        <path class="cls-1" d="M164.34,127.8c-44.54,26.37-62.94,70.16-58.26,129.34,9.44-1.83,21.73-3.43,35.06-4.31v-11.03c0-1.36,1.11-2.47,2.47-2.47h63.04c1.36,0,2.47,1.11,2.47,2.47v15.14c19.8,4.98,33.99,14.34,33.99,30.41H59.69c0-40.04,15.66-134.34,72.39-165.6,1.85-32.04,23.5-50.97,53.6-74.67,1.85-1.46,4.56-1.14,6.02.72l39.13,49.71c1.46,1.85,1.14,4.56-.71,6.02l-19.27,15.17c-7,5.51-14.76,6.08-23.23,5.93h-.03c-.57-.03-1.13-.04-1.67-.04-4.74,0-16.57-.22-21.58,3.28v-.07h0ZM83.54,251.08c-7.47,0-13.53,6.06-13.53,13.53s6.06,13.53,13.53,13.53,13.53-6.06,13.53-13.53-6.06-13.53-13.53-13.53Z"/>
        <path class="cls-1" d="M187.59,131.68l-1.67-.04c-4.74,0-16.57-.22-21.58,3.28v46.2c0,2.97,2.43,5.4,5.4,5.4h10.78c2.97,0,5.4-2.43,5.4-5.4v-49.48c.54,0,1.1.01,1.67.04Z"/>
        <rect class="cls-2" x="112.78" y="213.45" width="114.67" height="10.79" rx="2.18" ry="2.18"/>
        <path class="cls-1" d="M218.4,70.72l.05-.04-3.91-5.01,12.72-10.18c1.37-1.09,3.39-.83,4.47.55l1.98,2.54,19.49-15.47c2.48-1.97,6.12-1.5,8.07.99l7.07,9.05c1.95,2.49,1.48,6.11-.99,8.07l-19.54,15.51,1.93,2.47c1.08,1.38.82,3.37-.55,4.47l-12.72,10.18-3.91-5.01-1.69-2.16,14.87-11.62-2.17-2.77-14.87,11.61-.06-.08-6.72-8.61,14.68-11.47-2.17-2.77-14.68,11.46-1.34-1.72Z"/>
      </g>
    </g>
  </g>
</svg>