<?xml version="1.0" encoding="UTF-8"?>
<svg id="Layer_2" data-name="Layer 2" xmlns="http://www.w3.org/2000/svg" viewBox="0 0 329.23 329.23">
  <defs>
    <style>
      .cls-1 {
        fill: #fff;
      }

      .cls-1, .cls-2 {
        fill-rule: evenodd;
      }

      .cls-2 {
        fill: #00468c;
      }
    </style>
  </defs>
  <g id="Layer_1-2" data-name="Layer 1">
    <g>
      <path class="cls-2" d="M51.69,0h225.84c14.22,0,27.15,5.82,36.51,15.18,9.36,9.36,15.18,22.29,15.18,36.51v225.84c0,14.22-5.82,27.15-15.18,36.51-9.37,9.36-22.29,15.18-36.51,15.18H51.69c-14.22,0-27.15-5.82-36.51-15.18-9.36-9.37-15.18-22.29-15.18-36.51V51.69c0-14.22,5.82-27.15,15.18-36.51C24.54,5.82,37.47,0,51.69,0Z"/>
      <path class="cls-1" d="M14.12,232.23h76.03v-32.78c-12.31-1.53-23.35-7.17-31.69-15.51-9.84-9.84-15.93-23.44-15.93-38.46s6.09-28.62,15.93-38.46c9.84-9.84,23.44-15.93,38.46-15.93s28.61,6.09,38.46,15.93c9.84,9.84,15.93,23.44,15.93,38.46s-6.09,28.61-15.93,38.46c-8.34,8.34-19.38,13.98-31.69,15.51v32.78h125.74v-33.03c-11.59-1.83-21.96-7.32-29.9-15.26-9.84-9.84-15.93-23.44-15.93-38.46s6.09-28.62,15.93-38.46c9.84-9.84,23.44-15.93,38.46-15.93s28.61,6.09,38.46,15.93c9.84,9.84,15.93,23.44,15.93,38.46s-6.09,28.61-15.93,38.46c-8.74,8.74-20.45,14.52-33.48,15.71v32.59h72.16v33.05H14.12v-33.05h0ZM112.1,119.17l-17.97,24.71-17.97,24.71,5.55,3.2,5.55,3.21,12.42-27.92,12.41-27.92h0ZM268.36,148.69l-30.38-3.2-30.38-3.21v12.83l30.38-3.21,30.38-3.21Z"/>
    </g>
  </g>
</svg>