<?xml version="1.0" encoding="UTF-8"?>
<svg id="Layer_2" data-name="Layer 2" xmlns="http://www.w3.org/2000/svg" viewBox="0 0 329.23 329.23">
  <defs>
    <style>
      .cls-1 {
        fill: #fff;
      }

      .cls-1, .cls-2 {
        fill-rule: evenodd;
      }

      .cls-2 {
        fill: #00468c;
      }
    </style>
  </defs>
  <g id="Layer_1-2" data-name="Layer 1">
    <g>
      <path class="cls-2" d="M51.69,0h225.84c14.22,0,27.15,5.82,36.51,15.18,9.36,9.36,15.18,22.29,15.18,36.51v225.84c0,14.22-5.82,27.15-15.18,36.51-9.37,9.36-22.29,15.18-36.51,15.18H51.69c-14.22,0-27.15-5.82-36.51-15.18-9.36-9.37-15.18-22.29-15.18-36.51V51.69c0-14.22,5.82-27.15,15.18-36.51C24.54,5.82,37.47,0,51.69,0Z"/>
      <path class="cls-1" d="M164.61,60.61c57.44,0,104.01,46.56,104.01,104.01s-46.56,104-104.01,104-104-46.56-104-104,46.56-104.01,104-104.01h0ZM161.23,88.82v-20.06c-6.22.22-12.3,1.02-18.17,2.37l2.28,8.5-6.53,1.75-2.28-8.49c-5.91,1.81-11.57,4.17-16.93,7.02l10.03,17.37-5.84,3.38-10.03-17.38c-5.2,3.26-10.06,7-14.53,11.16l6.21,6.21-4.79,4.79-6.21-6.21c-4.17,4.47-7.91,9.33-11.17,14.53l17.37,10.03-3.36,5.84-17.39-10.04c-2.86,5.36-5.22,11.03-7.02,16.94l8.49,2.28-1.75,6.53-8.5-2.28c-1.35,5.87-2.15,11.94-2.37,18.17h20.06v6.77h-20.06c.22,6.22,1.02,12.3,2.37,18.17l8.5-2.28,1.75,6.53-8.5,2.28c1.81,5.91,4.17,11.57,7.02,16.93l17.37-10.03,3.38,5.84-17.38,10.03c3.26,5.2,7,10.06,11.16,14.53l6.21-6.21,4.79,4.79-6.21,6.21c4.47,4.16,9.33,7.91,14.53,11.17l10.03-17.37,5.84,3.36-10.04,17.39c13.42,7.15,28.75,11.21,45.02,11.21s31.59-4.06,45.02-11.21l-10.04-17.39,5.84-3.36,10.03,17.37c5.2-3.26,10.07-7,14.54-11.17l-6.21-6.21,4.79-4.79,6.21,6.21c4.16-4.47,7.9-9.33,11.16-14.53l-17.38-10.03,3.38-5.84,17.37,10.03c2.86-5.36,5.22-11.03,7.02-16.93l-8.49-2.28,1.75-6.53,8.5,2.28c1.35-5.87,2.15-11.94,2.37-18.17h-20.06v-6.77h20.06c-.22-6.23-1.02-12.3-2.37-18.17l-8.5,2.28-1.75-6.53,8.5-2.28c-1.81-5.91-4.17-11.58-7.03-16.94l-17.39,10.04-3.36-5.84,17.37-10.03c-3.26-5.2-7-10.07-11.16-14.54l-6.21,6.21-4.79-4.79,6.21-6.21c-4.47-4.16-9.33-7.9-14.53-11.16l-10.03,17.38-5.84-3.38,10.03-17.37c-5.36-2.86-11.03-5.22-16.93-7.03l-2.28,8.49-6.53-1.75,2.28-8.5c-5.87-1.35-11.94-2.15-18.17-2.37v20.06h-6.77ZM171.38,280.4c29.33-1.69,55.74-14.28,75.24-33.77,20.99-20.99,33.97-49.98,33.97-82.01s-12.98-61.02-33.97-82.01-49.98-33.97-82.01-33.97-61.02,12.98-82.01,33.97c-20.99,20.99-33.97,49.98-33.97,82.01s12.98,61.02,33.97,82.01c19.5,19.5,45.91,32.09,75.24,33.77v35.08h13.54v-35.08h0ZM224.05,113.08l-54.08,43.13-54.07,43.13,6.08,6.67,6.08,6.68,48-49.81,48-49.8Z"/>
    </g>
  </g>
</svg>