<?xml version="1.0" encoding="UTF-8"?>
<svg id="Layer_2" data-name="Layer 2" xmlns="http://www.w3.org/2000/svg" viewBox="0 0 329.23 329.23">
  <defs>
    <style>
      .cls-1 {
        fill: #fff;
      }

      .cls-1, .cls-2 {
        fill-rule: evenodd;
      }

      .cls-2 {
        fill: #00468c;
      }
    </style>
  </defs>
  <g id="Layer_1-2" data-name="Layer 1">
    <g>
      <path class="cls-2" d="M51.69,0h225.84c14.22,0,27.15,5.82,36.51,15.18,9.36,9.36,15.18,22.29,15.18,36.51v225.84c0,14.22-5.82,27.15-15.18,36.51-9.37,9.36-22.29,15.18-36.51,15.18H51.69c-14.22,0-27.15-5.82-36.51-15.18-9.36-9.37-15.18-22.29-15.18-36.51V51.69c0-14.22,5.82-27.15,15.18-36.51C24.54,5.82,37.47,0,51.69,0Z"/>
      <g>
        <g>
          <path class="cls-1" d="M118.77,174.98c8.19,0,14.87-6.68,14.87-14.87s-6.68-14.87-14.87-14.87-14.87,6.68-14.87,14.87,6.68,14.87,14.87,14.87Z"/>
          <path class="cls-1" d="M147.22,160.41l23.24-.07,33.98-.1c-.09-31.71-17.3-59.39-42.88-74.29l-17.08,29.38-11.68,20.1c8.6,5.01,14.38,14.31,14.41,24.98h0ZM74.89,85.94c-25.58,14.9-42.79,42.59-42.88,74.29l33.97.1,23.25.07c.03-10.66,5.82-19.97,14.42-24.97l-11.68-20.09-17.09-29.39h0ZM75.33,235.3c12.64,7.26,27.28,11.41,42.9,11.41s30.26-4.15,42.89-11.41l-16.91-29.49-11.56-20.17c-4.25,2.44-9.17,3.84-14.42,3.84s-10.17-1.39-14.42-3.84l-11.56,20.16-16.91,29.49Z"/>
        </g>
        <path class="cls-1" d="M225.61,141.36c19.81,16.64,22.04,33.34-.27,50.12l-7.59-10.11c13.32-10.02,11.83-20.13-.27-30.29l8.13-9.72Z"/>
        <path class="cls-1" d="M253.94,141.36c19.81,16.64,22.04,33.34-.27,50.12l-7.58-10.11c13.32-10.02,11.83-20.13-.27-30.29l8.13-9.72Z"/>
        <path class="cls-1" d="M282.28,141.36c9.37,7.87,14.62,16.11,14.92,24.77.3,8.82-4.48,17.3-15.19,25.36l-7.59-10.11c7.1-5.34,10.29-10.27,10.14-14.85-.16-4.74-3.83-9.92-10.41-15.44l8.13-9.72Z"/>
        <path class="cls-1" d="M225.61,77.35c19.81,16.64,22.04,33.34-.27,50.12l-7.59-10.11c13.32-10.02,11.83-20.13-.27-30.29l8.13-9.72Z"/>
        <path class="cls-1" d="M253.94,77.35c19.81,16.64,22.04,33.34-.27,50.12l-7.58-10.11c13.32-10.02,11.83-20.13-.27-30.29l8.13-9.72Z"/>
        <path class="cls-1" d="M282.28,77.35c9.37,7.87,14.62,16.11,14.92,24.77.3,8.82-4.48,17.3-15.19,25.36l-7.59-10.11c7.1-5.34,10.29-10.28,10.14-14.85-.16-4.74-3.83-9.92-10.41-15.44l8.13-9.72Z"/>
        <path class="cls-1" d="M225.61,201.75c19.81,16.64,22.04,33.34-.27,50.12l-7.59-10.11c13.32-10.02,11.83-20.13-.27-30.29l8.13-9.72Z"/>
        <path class="cls-1" d="M253.94,201.75c19.81,16.64,22.04,33.34-.27,50.12l-7.58-10.11c13.32-10.02,11.83-20.13-.27-30.29l8.13-9.72Z"/>
        <path class="cls-1" d="M282.28,201.75c9.37,7.87,14.62,16.11,14.92,24.77.3,8.82-4.48,17.3-15.19,25.36l-7.59-10.11c7.1-5.34,10.29-10.27,10.14-14.85-.16-4.74-3.83-9.92-10.41-15.44l8.13-9.72Z"/>
      </g>
    </g>
  </g>
</svg>