<?xml version="1.0" encoding="UTF-8"?>
<svg id="Layer_2" data-name="Layer 2" xmlns="http://www.w3.org/2000/svg" viewBox="0 0 329.23 329.23">
  <defs>
    <style>
      .cls-1 {
        fill: #fff;
      }

      .cls-1, .cls-2 {
        fill-rule: evenodd;
      }

      .cls-2 {
        fill: #00468c;
      }
    </style>
  </defs>
  <g id="Layer_1-2" data-name="Layer 1">
    <g>
      <path class="cls-2" d="M51.69,0h225.84c14.22,0,27.15,5.82,36.51,15.18,9.36,9.36,15.18,22.29,15.18,36.51v225.84c0,14.22-5.82,27.15-15.18,36.51-9.37,9.36-22.29,15.18-36.51,15.18H51.69c-14.22,0-27.15-5.82-36.51-15.18-9.36-9.37-15.18-22.29-15.18-36.51V51.69c0-14.22,5.82-27.15,15.18-36.51C24.54,5.82,37.47,0,51.69,0Z"/>
      <path class="cls-1" d="M45.4,224.69c-10.43-8.76-16.26-17.92-16.6-27.55-.34-9.82,4.98-19.24,16.9-28.21l8.44,11.25c-7.9,5.94-11.45,11.43-11.27,16.52.18,5.27,4.26,11.03,11.58,17.18l-9.04,10.81Z"/>
      <path class="cls-1" d="M76.92,224.69c-22.03-18.51-24.51-37.09.3-55.75l8.44,11.25c-14.82,11.15-13.16,22.39.3,33.7l-9.04,10.81Z"/>
      <path class="cls-1" d="M108.44,224.69c-22.03-18.51-24.51-37.09.3-55.75l8.44,11.25c-14.82,11.15-13.16,22.39.3,33.7l-9.04,10.81Z"/>
      <path class="cls-1" d="M45.4,159.05c-10.43-8.76-16.26-17.92-16.6-27.55-.34-9.81,4.98-19.24,16.9-28.21l8.44,11.25c-7.9,5.94-11.45,11.43-11.27,16.52.18,5.27,4.26,11.03,11.58,17.18l-9.04,10.81Z"/>
      <path class="cls-1" d="M76.92,159.05c-22.03-18.51-24.51-37.09.3-55.75l8.44,11.25c-14.82,11.15-13.16,22.39.3,33.7l-9.04,10.81Z"/>
      <path class="cls-1" d="M108.44,159.05c-22.03-18.51-24.51-37.09.3-55.75l8.44,11.25c-14.82,11.15-13.16,22.39.3,33.7l-9.04,10.81Z"/>
      <path class="cls-1" d="M279.35,213.91c7.32-6.15,11.4-11.91,11.58-17.21.17-5.09-3.38-10.58-11.27-16.52l8.44-11.25c11.92,8.96,17.24,18.39,16.9,28.21-.33,9.61-6.17,18.76-16.6,27.52l-9.04-10.75Z"/>
      <path class="cls-1" d="M247.83,213.88c13.46-11.31,15.12-22.55.3-33.7l8.44-11.25c24.82,18.67,22.34,37.25.3,55.75l-9.04-10.81Z"/>
      <path class="cls-1" d="M216.31,213.88c13.46-11.31,15.12-22.55.3-33.7l8.44-11.25c24.82,18.67,22.34,37.25.3,55.75l-9.04-10.81Z"/>
      <path class="cls-1" d="M279.35,148.27c7.32-6.15,11.4-11.91,11.58-17.21.17-5.09-3.38-10.58-11.27-16.52l8.44-11.25c11.92,8.96,17.24,18.39,16.9,28.21-.33,9.61-6.17,18.76-16.6,27.52l-9.04-10.75Z"/>
      <path class="cls-1" d="M247.83,148.24c13.46-11.31,15.12-22.55.3-33.7l8.44-11.25c24.82,18.67,22.34,37.25.3,55.75l-9.04-10.81Z"/>
      <path class="cls-1" d="M216.31,148.24c13.46-11.31,15.12-22.55.3-33.7l8.44-11.25c24.82,18.67,22.34,37.25.3,55.75l-9.04-10.81Z"/>
      <path class="cls-1" d="M181.5,118.2h-33.76v24.89h33.76v-24.89h0ZM315.11,247.49h-119.5v27.97h-62v-27.97H14.12v-14.12h119.5V95.85H14.12v-14.12h119.5v-27.97h62v27.97h119.5v14.12h-119.5v137.52h119.5v14.12h0ZM181.5,247.49h-33.76v13.85h33.76v-13.85h0ZM181.5,81.74v-13.86h-33.76v13.86h33.76ZM147.73,210.65h33.76v-24.5h-33.76v24.5Z"/>
    </g>
  </g>
</svg>