<?xml version="1.0" encoding="UTF-8"?>
<svg id="Layer_2" data-name="Layer 2" xmlns="http://www.w3.org/2000/svg" viewBox="0 0 329.23 329.23">
  <defs>
    <style>
      .cls-1 {
        fill: #fff;
      }

      .cls-1, .cls-2 {
        fill-rule: evenodd;
      }

      .cls-2 {
        fill: #00468c;
      }
    </style>
  </defs>
  <g id="Layer_1-2" data-name="Layer 1">
    <g>
      <path class="cls-2" d="M51.69,0h225.84c14.22,0,27.15,5.82,36.51,15.18,9.36,9.36,15.18,22.29,15.18,36.51v225.84c0,14.22-5.82,27.15-15.18,36.51-9.37,9.36-22.29,15.18-36.51,15.18H51.69c-14.22,0-27.15-5.82-36.51-15.18-9.36-9.37-15.18-22.29-15.18-36.51V51.69c0-14.22,5.82-27.15,15.18-36.51C24.54,5.82,37.47,0,51.69,0Z"/>
      <path class="cls-1" d="M315.11,230.05H14.12v47.48c0,10.33,4.23,19.72,11.04,26.53,6.81,6.81,16.21,11.04,26.53,11.04h225.84c10.33,0,19.72-4.23,26.53-11.04,6.81-6.81,11.04-16.21,11.04-26.53v-47.48h0ZM252.13,294.32l-9.98-9.98,9.98-9.98,9.98,9.98-9.98,9.98h0ZM272.09,274.35l-9.98-9.98,9.98-9.98,9.98,9.98-9.98,9.98h0ZM292.06,254.39l-9.98-9.98,9.98-9.98,9.98,9.98-9.98,9.98h0ZM223.34,284.1l-9.98,9.98-9.98-9.98,9.98-9.98,9.98,9.98h0ZM203.37,264.13l-9.98,9.98-9.98-9.98,9.98-9.98,9.98,9.98h0ZM183.41,244.17l-9.98,9.98-9.98-9.98,9.98-9.98,9.98,9.98h0ZM242.81,302.56l-9.98,9.98-9.98-9.98,9.98-9.98,9.98,9.98Z"/>
      <path class="cls-1" d="M70.06,215.08h105.4v-76.35h-105.4v76.35h0ZM145.48,164.25l-46,46-9.98-9.98,46-46,9.98,9.98Z"/>
      <polygon class="cls-1" points="62.64 164.88 40.35 164.88 40.35 157.35 14.12 157.35 14.12 143.24 40.35 143.24 40.35 138.73 62.64 138.73 62.64 164.88"/>
    </g>
  </g>
</svg>