<?xml version="1.0" encoding="UTF-8"?>
<svg id="Layer_2" data-name="Layer 2" xmlns="http://www.w3.org/2000/svg" viewBox="0 0 329.23 329.23">
  <defs>
    <style>
      .cls-1 {
        fill: #fff;
      }

      .cls-1, .cls-2 {
        fill-rule: evenodd;
      }

      .cls-2 {
        fill: #00468c;
      }
    </style>
  </defs>
  <g id="Layer_1-2" data-name="Layer 1">
    <g>
      <path class="cls-2" d="M51.69,0h225.84c14.22,0,27.15,5.82,36.51,15.18,9.36,9.36,15.18,22.29,15.18,36.51v225.84c0,14.22-5.82,27.15-15.18,36.51-9.37,9.36-22.29,15.18-36.51,15.18H51.69c-14.22,0-27.15-5.82-36.51-15.18-9.36-9.37-15.18-22.29-15.18-36.51V51.69c0-14.22,5.82-27.15,15.18-36.51C24.54,5.82,37.47,0,51.69,0Z"/>
      <g>
        <path class="cls-1" d="M146.59,281.14c5.9,7.02,11.42,10.93,16.47,11.1,4.88.17,10.14-3.24,15.84-10.81l10.79,8.09c-8.59,11.43-17.63,16.53-27.05,16.2-9.23-.32-18.02-5.92-26.41-15.91l10.36-8.67Z"/>
        <path class="cls-1" d="M146.59,250.92c10.84,12.91,21.62,14.5,32.31.29l10.79,8.09c-17.9,23.8-35.71,21.42-53.46.29l10.36-8.67Z"/>
        <path class="cls-1" d="M146.59,220.7c10.84,12.91,21.62,14.5,32.31.29l10.79,8.09c-17.9,23.79-35.71,21.42-53.46.29l10.36-8.67Z"/>
        <path class="cls-1" d="M315.11,164.86h-79.25v46.41H105.45v46.41H14.12v-13.54h77.79v-46.41h31.21v-59.95c0-3.11,1.27-5.94,3.31-7.99s4.87-3.31,7.99-3.31h2.53v-18.45c0-13.09,9.21-32.84,21.47-38.12V14.12h12.4v55.8c12.26,5.27,21.47,25.03,21.47,38.12v18.45h2.53c3.11,0,5.94,1.27,7.99,3.31v.03c2.04,2.05,3.31,4.86,3.31,7.96v59.95h16.21v-46.41h92.79v13.54h0ZM136.65,197.73h55.92v-57.72h-55.92v57.72Z"/>
      </g>
    </g>
  </g>
</svg>