<?xml version="1.0" encoding="UTF-8"?>
<svg id="Layer_2" data-name="Layer 2" xmlns="http://www.w3.org/2000/svg" viewBox="0 0 329.23 329.23">
  <defs>
    <style>
      .cls-1 {
        fill: #fff;
      }

      .cls-1, .cls-2 {
        fill-rule: evenodd;
      }

      .cls-2 {
        fill: #00468c;
      }
    </style>
  </defs>
  <g id="Layer_1-2" data-name="Layer 1">
    <g>
      <path class="cls-2" d="M51.69,0h225.84c14.22,0,27.15,5.82,36.51,15.18,9.36,9.36,15.18,22.29,15.18,36.51v225.84c0,14.22-5.82,27.15-15.18,36.51-9.37,9.36-22.29,15.18-36.51,15.18H51.69c-14.22,0-27.15-5.82-36.51-15.18-9.36-9.37-15.18-22.29-15.18-36.51V51.69c0-14.22,5.81-27.15,15.18-36.51C24.54,5.82,37.47,0,51.69,0Z"/>
      <g>
        <path class="cls-1" d="M206.32,53.69c20.04,0,38.19,8.13,51.33,21.26,13.14,13.13,21.26,31.28,21.26,51.33s-8.12,38.19-21.26,51.33c-13.13,13.14-31.28,21.26-51.33,21.26s-38.19-8.13-51.33-21.26c-13.13-13.13-21.26-31.28-21.26-51.33s8.13-38.19,21.26-51.33c13.14-13.13,31.28-21.26,51.33-21.26h0ZM248.51,84.09c-10.79-10.79-25.71-17.47-42.18-17.47s-31.39,6.68-42.18,17.47c-10.79,10.79-17.47,25.71-17.47,42.18s6.68,31.39,17.47,42.18c10.79,10.79,25.71,17.47,42.18,17.47s31.39-6.68,42.18-17.47c10.79-10.79,17.47-25.71,17.47-42.18s-6.68-31.39-17.47-42.18Z"/>
        <path class="cls-1" d="M206.32,32.36c25.93,0,49.41,10.51,66.41,27.51,16.99,17,27.51,40.48,27.51,66.41s-10.51,49.41-27.51,66.41c-9.15,9.15-20.18,16.42-32.47,21.19l-140.43,76.31c-7.04,4.25-15.29,6.69-24.11,6.69-12.9,0-24.59-5.23-33.05-13.69-8.46-8.46-13.69-20.14-13.69-33.05,0-9.4,2.78-18.16,7.56-25.49L122.64,83.6c4.5-8.8,10.35-16.81,17.27-23.73,17-17,40.48-27.51,66.41-27.51h0ZM201.83,220.09c-24.15-1.14-45.91-11.4-61.92-27.4-16.99-17-27.51-40.48-27.51-66.41v-1.16s-48.73,79.84-48.73,79.84c3.85-1.02,7.88-1.57,12.05-1.57,12.91,0,24.59,5.23,33.05,13.69,8.46,8.46,13.69,20.14,13.69,33.05,0,4.98-.78,9.79-2.23,14.29l81.6-44.34h0ZM235.18,201.97l18.86-10.25c3.39-2.48,6.59-5.21,9.55-8.18,14.65-14.65,23.72-34.9,23.72-57.26s-9.06-42.61-23.72-57.26c-14.65-14.65-34.9-23.72-57.26-23.72s-42.61,9.06-57.26,23.72c-3.09,3.09-5.93,6.43-8.49,9.99l-6.43,10.54c-5.62,11.03-8.8,23.52-8.8,36.74,0,22.36,9.06,42.61,23.72,57.26,14.65,14.65,34.9,23.72,57.26,23.72,10.16,0,19.89-1.87,28.85-5.29h0ZM99.63,226.22c-6.12-6.12-14.57-9.9-23.91-9.9s-17.79,3.78-23.91,9.9c-6.11,6.12-9.9,14.57-9.9,23.91s3.78,17.79,9.9,23.9c6.12,6.12,14.57,9.9,23.91,9.9s17.79-3.79,23.91-9.9c6.12-6.11,9.9-14.57,9.9-23.9s-3.79-17.79-9.9-23.91Z"/>
        <path class="cls-1" d="M206.32,102.39c6.59,0,12.57,2.68,16.89,7,4.32,4.32,7,10.29,7,16.89s-2.67,12.57-7,16.89c-4.32,4.32-10.3,7-16.89,7s-12.57-2.67-16.89-7c-4.32-4.32-7-10.3-7-16.89s2.68-12.57,7-16.89c4.32-4.32,10.3-7,16.89-7h0ZM214.07,118.53c-1.98-1.98-4.72-3.21-7.75-3.21s-5.76,1.23-7.75,3.21c-1.98,1.98-3.21,4.72-3.21,7.75s1.23,5.77,3.21,7.75,4.72,3.21,7.75,3.21,5.77-1.23,7.75-3.21c1.98-1.98,3.21-4.72,3.21-7.75s-1.23-5.76-3.21-7.75Z"/>
        <path class="cls-1" d="M75.73,226.24c6.59,0,12.57,2.68,16.89,7,4.32,4.32,7,10.29,7,16.89s-2.68,12.57-7,16.89c-4.32,4.32-10.3,7-16.89,7s-12.57-2.67-16.89-7c-4.32-4.32-7-10.3-7-16.89s2.68-12.57,7-16.89c4.32-4.32,10.3-7,16.89-7h0ZM83.47,242.38c-1.98-1.98-4.72-3.21-7.75-3.21s-5.76,1.23-7.75,3.21c-1.98,1.98-3.21,4.72-3.21,7.75s1.23,5.77,3.21,7.74c1.98,1.98,4.72,3.21,7.75,3.21s5.77-1.23,7.75-3.21,3.21-4.72,3.21-7.74-1.23-5.76-3.21-7.75Z"/>
        <polygon class="cls-1" points="206.32 70.36 208.83 76.36 211.33 82.36 207.94 82.36 207.94 99.22 204.71 99.22 204.71 82.36 201.32 82.36 203.82 76.36 206.32 70.36"/>
        <polygon class="cls-1" points="245.87 86.74 243.39 92.75 240.92 98.77 238.52 96.37 226.6 108.29 224.31 106 236.23 94.08 233.83 91.68 239.85 89.21 245.87 86.74"/>
        <polygon class="cls-1" points="262.24 126.28 256.24 128.78 250.24 131.28 250.24 127.89 233.38 127.89 233.38 124.66 250.24 124.66 250.24 121.27 256.24 123.77 262.24 126.28"/>
        <polygon class="cls-1" points="245.87 165.82 239.85 163.34 233.83 160.87 236.23 158.47 224.31 146.55 226.6 144.27 238.52 156.19 240.92 153.79 243.39 159.8 245.87 165.82"/>
        <polygon class="cls-1" points="206.32 182.2 203.82 176.19 201.32 170.19 204.71 170.19 204.71 153.33 207.94 153.33 207.94 170.19 211.33 170.19 208.83 176.19 206.32 182.2"/>
        <polygon class="cls-1" points="166.78 165.82 169.26 159.8 171.73 153.79 174.13 156.19 186.05 144.27 188.34 146.55 176.42 158.47 178.82 160.87 172.8 163.34 166.78 165.82"/>
        <polygon class="cls-1" points="150.41 126.28 156.41 123.77 162.41 121.27 162.41 124.66 179.27 124.66 179.27 127.89 162.41 127.89 162.41 131.28 156.41 128.78 150.41 126.28"/>
        <polygon class="cls-1" points="166.78 86.74 172.8 89.21 178.82 91.68 176.42 94.08 188.34 106 186.05 108.29 174.13 96.37 171.73 98.77 169.26 92.75 166.78 86.74"/>
      </g>
    </g>
  </g>
</svg>