<?xml version="1.0" encoding="UTF-8"?>
<svg id="Layer_2" data-name="Layer 2" xmlns="http://www.w3.org/2000/svg" viewBox="0 0 329.23 329.23">
  <defs>
    <style>
      .cls-1 {
        fill: #fff;
      }

      .cls-1, .cls-2 {
        fill-rule: evenodd;
      }

      .cls-2 {
        fill: #00468c;
      }
    </style>
  </defs>
  <g id="Layer_1-2" data-name="Layer 1">
    <g>
      <path class="cls-2" d="M51.69,0h225.84c14.22,0,27.15,5.82,36.51,15.18,9.36,9.36,15.18,22.29,15.18,36.51v225.84c0,14.22-5.82,27.15-15.18,36.51-9.37,9.36-22.29,15.18-36.51,15.18H51.69c-14.22,0-27.15-5.82-36.51-15.18-9.36-9.37-15.18-22.29-15.18-36.51V51.69c0-14.22,5.82-27.15,15.18-36.51C24.54,5.82,37.47,0,51.69,0Z"/>
      <path class="cls-1" d="M110.76,47.65h107.72v83.08l-44.31,70.42c-2.91-1.33-6.14-2.06-9.55-2.06s-6.64.74-9.55,2.06l-44.31-70.42V47.65h0ZM164.61,208.46c7.56,0,13.68,6.13,13.68,13.68s-6.13,13.68-13.68,13.68-13.68-6.13-13.68-13.68,6.13-13.68,13.68-13.68h0ZM14.12,245.18h300.99v32.35c0,10.33-4.23,19.72-11.04,26.53-6.81,6.81-16.21,11.04-26.53,11.04H51.69c-10.33,0-19.72-4.23-26.53-11.04-6.81-6.81-11.04-16.21-11.04-26.53v-32.35Z"/>
    </g>
  </g>
</svg>