<?xml version="1.0" encoding="UTF-8"?>
<svg id="Layer_2" data-name="Layer 2" xmlns="http://www.w3.org/2000/svg" viewBox="0 0 329.23 329.23">
  <defs>
    <style>
      .cls-1 {
        fill: #fff;
      }

      .cls-1, .cls-2 {
        fill-rule: evenodd;
      }

      .cls-2 {
        fill: #00468c;
      }
    </style>
  </defs>
  <g id="Layer_1-2" data-name="Layer 1">
    <g>
      <path class="cls-2" d="M51.69,0h225.84c14.22,0,27.15,5.82,36.51,15.18,9.36,9.36,15.18,22.29,15.18,36.51v225.84c0,14.22-5.82,27.15-15.18,36.51-9.37,9.36-22.29,15.18-36.51,15.18H51.69c-14.22,0-27.15-5.82-36.51-15.18-9.36-9.37-15.18-22.29-15.18-36.51V51.69c0-14.22,5.82-27.15,15.18-36.51C24.54,5.82,37.47,0,51.69,0Z"/>
      <g>
        <path class="cls-1" d="M163.89,176.27c11.03,0,20.03-9,20.03-20.03s-9-20.03-20.03-20.03-20.03,9-20.03,20.03,9,20.03,20.03,20.03Z"/>
        <path class="cls-1" d="M125.56,156.64l-31.32-.09-45.79-.14c.12-42.73,23.31-80.02,57.77-100.1l23.02,39.59,15.74,27.08c-11.58,6.75-19.38,19.28-19.42,33.66h0ZM223.01,56.31c34.46,20.07,57.65,57.38,57.77,100.1l-45.78.13-31.33.09c-.04-14.37-7.85-26.91-19.43-33.65l15.74-27.07,23.02-39.6h0ZM222.41,257.54c-17.02,9.79-36.76,15.38-57.8,15.38s-40.77-5.59-57.79-15.37l22.79-39.74,15.58-27.17c5.72,3.29,12.35,5.17,19.43,5.17s13.71-1.88,19.43-5.17l15.58,27.16,22.79,39.74Z"/>
      </g>
    </g>
  </g>
</svg>