<?xml version="1.0" encoding="UTF-8"?>
<svg id="Layer_2" data-name="Layer 2" xmlns="http://www.w3.org/2000/svg" viewBox="0 0 329.23 329.23">
  <defs>
    <style>
      .cls-1 {
        fill: #fff;
      }

      .cls-1, .cls-2 {
        fill-rule: evenodd;
      }

      .cls-2 {
        fill: #00468c;
      }
    </style>
  </defs>
  <g id="Layer_1-2" data-name="Layer 1">
    <g>
      <path class="cls-2" d="M51.69,0h225.84c14.22,0,27.15,5.82,36.51,15.18,9.36,9.36,15.18,22.29,15.18,36.51v225.84c0,14.22-5.82,27.15-15.18,36.51-9.37,9.36-22.29,15.18-36.51,15.18H51.69c-14.22,0-27.15-5.82-36.51-15.18-9.36-9.37-15.18-22.29-15.18-36.51V51.69c0-14.22,5.82-27.15,15.18-36.51C24.54,5.82,37.47,0,51.69,0Z"/>
      <path class="cls-1" d="M177.77,141.79c18.11,15.22,20.15,30.49-.25,45.84l-6.94-9.25c12.18-9.16,10.82-18.41-.25-27.7l7.43-8.89Z"/>
      <path class="cls-1" d="M255.36,141.81c8.57,7.2,13.37,14.73,13.64,22.63.28,8.07-4.1,15.82-13.89,23.19l-6.94-9.25c6.49-4.88,9.41-9.4,9.27-13.58-.15-4.35-3.5-9.09-9.52-14.15l7.43-8.84Z"/>
      <path class="cls-1" d="M229.45,141.79c18.11,15.22,20.15,30.49-.25,45.84l-6.94-9.25c12.18-9.16,10.82-18.41-.25-27.7l7.43-8.89Z"/>
      <path class="cls-1" d="M203.54,141.79c18.11,15.22,20.15,30.49-.25,45.84l-6.94-9.25c12.18-9.16,10.82-18.41-.25-27.7l7.43-8.89Z"/>
      <path class="cls-1" d="M215.71,234.27c19.24,0,36.65-7.8,49.26-20.4,12.61-12.6,20.4-30.02,20.4-49.26s-7.8-36.65-20.4-49.26c-12.6-12.6-30.02-20.4-49.26-20.4v-11.61c22.44,0,42.76,9.1,57.46,23.8,14.7,14.7,23.8,35.02,23.8,57.46s-9.1,42.76-23.8,57.46c-14.71,14.71-35.02,23.8-57.46,23.8v-11.61Z"/>
      <path class="cls-1" d="M22.56,113.91h130.58v101.4H14.12v-101.4h8.44ZM66.38,192.35c5.08,2.92,10.97,4.59,17.25,4.59s12.17-1.67,17.25-4.59l-6.8-11.86-4.65-8.11c-1.71.98-3.69,1.54-5.8,1.54s-4.09-.56-5.8-1.54l-4.65,8.11-6.8,11.86h0ZM66.2,132.29c-10.29,5.99-17.21,17.13-17.24,29.88l13.66.04,9.35.03c.01-4.29,2.34-8.03,5.8-10.04l-4.7-8.08-6.87-11.82h0ZM95.29,162.23l9.35-.03,13.67-.04c-.04-12.75-6.96-23.89-17.24-29.88l-6.87,11.82-4.7,8.08c3.46,2.01,5.78,5.75,5.8,10.05h0ZM83.84,156.13c-3.3,0-5.98,2.68-5.98,5.98s2.68,5.98,5.98,5.98,5.98-2.68,5.98-5.98-2.68-5.98-5.98-5.98Z"/>
    </g>
  </g>
</svg>