<?xml version="1.0" encoding="UTF-8"?>
<svg id="Layer_2" data-name="Layer 2" xmlns="http://www.w3.org/2000/svg" viewBox="0 0 329.23 329.23">
  <defs>
    <style>
      .cls-1 {
        fill: #fff;
      }

      .cls-1, .cls-2 {
        fill-rule: evenodd;
      }

      .cls-2 {
        fill: #00468c;
      }
    </style>
  </defs>
  <g id="Layer_1-2" data-name="Layer 1">
    <g>
      <path class="cls-2" d="M51.69,0h225.84c14.22,0,27.15,5.82,36.51,15.18,9.36,9.36,15.18,22.29,15.18,36.51v225.84c0,14.22-5.82,27.15-15.18,36.51-9.37,9.36-22.29,15.18-36.51,15.18H51.69c-14.22,0-27.15-5.82-36.51-15.18-9.36-9.37-15.18-22.29-15.18-36.51V51.69c0-14.22,5.81-27.15,15.18-36.51C24.54,5.82,37.47,0,51.69,0Z"/>
      <g>
        <path class="cls-1" d="M69.39,263.16h49.19v-11.79h64.73v4.52h7.4v-10.18c7.58,0,16.79,1.69,24.36-.41,3.02-.84,5.47-7.76,8.62-8.6,5.59-1.48,10.33-.11,16.09-.11v8.6c0,5.89,4.82,10.71,10.71,10.71h0c5.89,0,10.71-4.82,10.71-10.71v-38.28c3.27,0,8.82-.34,9.8,5.68v8.8h3.73v-40.23h-3.73v8.81c-.98,6.02-6.53,5.68-9.8,5.68v-38.28c0-5.89-4.82-10.71-10.71-10.71h0c-5.89,0-10.71,4.82-10.71,10.71v8.6c-5.76,0-10.5,1.37-16.09-.11-3.15-.84-5.6-7.76-8.62-8.6-7.57-2.1-16.79-.41-24.36-.41v-10.18h-7.4v4.52h-39.56v-19.07h-3.22c.64-.02,1.17-.55,1.17-1.2v-6.14c0-3.22-1.92-7.82-4.66-10.09v-7.71c0-3.26-1.26-5.95-3.17-7.89-2.12-2.15-5.05-3.34-7.95-3.34h-52.62c-3.36,0-3.36-2.2-3.36-3.5v-51.68h-6.77v51.68c0,3.8,0,10.26,10.12,10.26h52.62c1.16,0,2.32.46,3.14,1.3.73.74,1.21,1.81,1.21,3.15v7.71c-2.75,2.27-4.66,6.87-4.66,10.09v6.14c0,.65.52,1.18,1.17,1.2h-3.22v19.07h-4.98v-11.79h-49.19l-16.48,22.49v78.81l16.48,22.49h0ZM118.58,241.21v-4.85h64.73v4.85h-64.73ZM118.58,226.21v-4.86h64.73v4.86h-64.73ZM118.58,211.2v-4.85h64.73v4.85h-64.73ZM118.58,196.19v-4.86h64.73v4.86h-64.73ZM118.58,181.19v-4.85h64.73v4.85h-64.73ZM118.58,166.18v-4.85h64.73v4.85h-64.73Z"/>
        <polygon class="cls-1" points="205.85 113.27 209.63 119.55 213.42 125.84 208.29 125.84 208.29 143.48 203.4 143.48 203.4 125.84 198.27 125.84 202.06 119.55 205.85 113.27"/>
        <polygon class="cls-1" points="222.16 143.48 225.95 137.19 229.74 130.91 224.6 130.91 224.6 113.27 219.71 113.27 219.71 130.91 214.58 130.91 218.37 137.19 222.16 143.48"/>
        <polygon class="cls-1" points="205.85 258.46 209.63 264.75 213.42 271.03 208.29 271.03 208.29 288.67 203.4 288.67 203.4 271.03 198.27 271.03 202.06 264.75 205.85 258.46"/>
        <polygon class="cls-1" points="222.16 288.67 225.95 282.39 229.74 276.1 224.6 276.1 224.6 258.46 219.71 258.46 219.71 276.1 214.58 276.1 218.37 282.39 222.16 288.67"/>
        <path class="cls-1" d="M76.53,83.97c1.86,0,5.6-9.74,9.34-19.49,4.58-11.92,9.16-23.84,15.63-23.84s11.05,11.93,15.63,23.84c3.74,9.74,7.49,19.49,9.34,19.49s5.6-9.74,9.34-19.49c4.58-11.92,9.16-23.84,15.63-23.84s11.05,11.92,15.63,23.84c3.74,9.74,7.49,19.49,9.34,19.49s5.6-9.74,9.34-19.49c4.58-11.92,9.16-23.84,15.63-23.84s11.05,11.93,15.63,23.84c3.74,9.74,7.49,19.49,9.34,19.49s5.6-9.74,9.34-19.48c4.58-11.92,9.16-23.85,15.63-23.85s11.05,11.92,15.63,23.84c3.74,9.74,7.49,19.49,9.34,19.49v6.77c-6.47,0-11.05-11.92-15.63-23.85-3.74-9.74-7.49-19.48-9.34-19.48s-5.6,9.74-9.34,19.48c-4.58,11.92-9.16,23.85-15.63,23.85s-11.05-11.92-15.63-23.85c-3.74-9.74-7.49-19.48-9.34-19.48s-5.6,9.74-9.34,19.48c-4.58,11.92-9.16,23.85-15.63,23.85s-11.05-11.92-15.63-23.85c-3.74-9.74-7.49-19.48-9.34-19.48s-5.6,9.74-9.34,19.48c-4.58,11.92-9.16,23.85-15.63,23.85s-11.05-11.92-15.63-23.85c-3.74-9.74-7.49-19.48-9.34-19.48s-5.6,9.74-9.34,19.48c-4.58,11.92-9.17,23.85-15.63,23.85v-6.77Z"/>
      </g>
    </g>
  </g>
</svg>