<?xml version="1.0" encoding="UTF-8"?>
<svg id="Layer_2" data-name="Layer 2" xmlns="http://www.w3.org/2000/svg" viewBox="0 0 329.23 329.23">
  <defs>
    <style>
      .cls-1 {
        fill: #fff;
      }

      .cls-1, .cls-2 {
        fill-rule: evenodd;
      }

      .cls-2 {
        fill: #00468c;
      }
    </style>
  </defs>
  <g id="Layer_1-2" data-name="Layer 1">
    <g>
      <path class="cls-2" d="M51.69,0h225.84c14.22,0,27.15,5.82,36.51,15.18,9.36,9.36,15.18,22.29,15.18,36.51v225.84c0,14.22-5.82,27.15-15.18,36.51-9.37,9.36-22.29,15.18-36.51,15.18H51.69c-14.22,0-27.15-5.82-36.51-15.18-9.36-9.37-15.18-22.29-15.18-36.51V51.69c0-14.22,5.81-27.15,15.18-36.51C24.54,5.82,37.47,0,51.69,0Z"/>
      <g>
        <path class="cls-1" d="M164.61,42.82c33.63,0,64.08,13.63,86.12,35.67s35.68,52.49,35.68,86.12-13.63,64.09-35.68,86.13c-22.04,22.04-52.49,35.68-86.12,35.68s-64.09-13.63-86.13-35.68c-22.04-22.04-35.67-52.49-35.67-86.13s13.63-64.08,35.67-86.12c22.04-22.04,52.49-35.67,86.13-35.67h0ZM245.84,83.39c-20.79-20.79-49.5-33.64-81.23-33.64s-60.44,12.86-81.23,33.64c-20.79,20.79-33.64,49.5-33.64,81.23s12.86,60.44,33.64,81.23c20.79,20.79,49.51,33.65,81.23,33.65s60.44-12.86,81.23-33.65c20.79-20.79,33.65-49.51,33.65-81.23s-12.86-60.44-33.65-81.23Z"/>
        <path class="cls-1" d="M196.11,79.49c-11.33-10.08-18.43-12.73-28.07-15.74l.02,64.6c2.49.23,4.91.72,7.24,1.43l20.82-50.3h0ZM168.06,135.33h0c-1.14-.13-2.3-.2-3.47-.2-8.14,0-15.52,3.3-20.85,8.64s-8.64,12.71-8.64,20.85,3.3,15.52,8.64,20.85c5.34,5.34,12.71,8.64,20.85,8.64,1.16,0,2.31-.07,3.43-.2h0c1.56-.18,3.09-.48,4.57-.89h0c2.25-.64,4.39-1.53,6.39-2.65h0c1.36-.75,2.65-1.61,3.87-2.57h-.01c.91-.73,1.78-1.5,2.6-2.32.81-.81,1.58-1.67,2.29-2.57l.02.02c.96-1.22,1.83-2.51,2.6-3.87h-.02c1.12-2,2.01-4.14,2.65-6.39h.02c.42-1.47.73-3,.91-4.57h-.03c.13-1.14.2-2.3.2-3.47s-.07-2.31-.2-3.43h.03c-.18-1.57-.49-3.09-.9-4.58h-.02c-.63-2.24-1.52-4.38-2.64-6.38h.02c-.76-1.37-1.63-2.66-2.59-3.88h-.01c-.72-.9-1.49-1.77-2.31-2.59-.81-.81-1.67-1.58-2.57-2.29h.01c-1.22-.97-2.51-1.84-3.87-2.6h0c-2-1.11-4.13-2-6.38-2.64h0c-1.48-.42-3.01-.73-4.57-.91h0ZM181.67,132.43l24.7-59.67c7.76,6.47,13.31,11.63,19.91,25.27l-38.48,38.5c-1.89-1.57-3.95-2.94-6.13-4.1h0ZM192.69,141.42l45.65-45.68c4.7,8.95,7.85,15.84,8.73,30.96l-50.28,20.84c-1.16-2.19-2.54-4.24-4.1-6.13h0ZM199.44,153.94c.71,2.32,1.2,4.75,1.43,7.24h54.42c4.98-14.34,4.71-21.92,3.8-31.97l-59.65,24.73h0ZM200.87,168.08c-.24,2.5-.72,4.92-1.44,7.25l50.28,20.81c10.08-11.33,12.73-18.43,15.73-28.07l-64.58.02h0ZM196.78,181.71l59.66,24.69c-6.47,7.76-11.63,13.31-25.27,19.91l-38.5-38.48c1.57-1.89,2.95-3.94,4.11-6.13h0ZM187.78,192.72l45.68,45.66c-8.94,4.7-15.84,7.85-30.96,8.73l-20.85-50.29c2.19-1.16,4.24-2.53,6.13-4.1h0ZM175.26,199.45c-2.32.71-4.74,1.19-7.24,1.42v54.44c14.34,4.98,21.92,4.71,31.97,3.8l-24.73-59.66h0ZM161.12,200.87c-2.49-.24-4.91-.73-7.23-1.44l-20.82,50.31c11.33,10.08,18.43,12.73,28.07,15.73l-.02-64.6h0ZM147.51,196.77l-24.71,59.69c-7.76-6.47-13.31-11.63-19.92-25.27l38.5-38.52c1.89,1.56,3.94,2.94,6.12,4.1h0ZM136.51,187.78l-45.68,45.71c-4.7-8.95-7.85-15.84-8.73-30.96l50.32-20.86c1.16,2.18,2.53,4.23,4.09,6.12h0ZM129.78,175.27c-.71-2.32-1.19-4.73-1.42-7.22h-54.47c-4.98,14.34-4.71,21.92-3.8,31.97l59.7-24.75h0ZM128.36,161.15c.24-2.49.72-4.91,1.43-7.23l-50.33-20.83c-10.08,11.33-12.73,18.43-15.74,28.07l64.63-.02h0ZM132.44,147.54l-59.7-24.71c6.47-7.76,11.63-13.31,25.27-19.91l38.53,38.51c-1.56,1.89-2.94,3.94-4.1,6.12h0ZM141.42,136.54l-45.7-45.68c8.95-4.7,15.84-7.85,30.97-8.73l20.85,50.31c-2.18,1.16-4.23,2.54-6.12,4.1h0ZM153.92,129.79c2.32-.71,4.74-1.2,7.23-1.43v-54.45c-14.34-4.98-21.92-4.71-31.97-3.8l24.74,59.68h0ZM231.45,92.87l8.64-8.64,3.3,6.25c5.45,10.31,9.21,17.42,10.43,33.44l11.29-4.68.66,7.04c1.09,11.62,1.84,19.63-3.16,34.89h12.22s-2.08,6.73-2.08,6.73c-3.44,11.16-5.81,18.85-16.27,31.03l11.29,4.67-4.5,5.43c-7.44,8.99-12.57,15.18-26.92,22.44l8.64,8.64-6.25,3.3c-10.31,5.45-17.42,9.21-33.44,10.43l4.68,11.29-7.04.65c-11.62,1.09-19.63,1.84-34.89-3.16v12.22s-6.73-2.08-6.73-2.08c-11.16-3.44-18.85-5.81-31.03-16.27l-4.68,11.29-5.43-4.5c-8.98-7.44-15.18-12.57-22.44-26.91l-8.64,8.64-3.3-6.25c-5.45-10.31-9.2-17.42-10.43-33.44l-11.29,4.68-.66-7.04c-1.09-11.62-1.84-19.63,3.16-34.88h-12.22s2.08-6.73,2.08-6.73c3.44-11.16,5.81-18.85,16.27-31.03l-11.29-4.67,4.51-5.43h0c7.44-8.99,12.57-15.18,26.91-22.45l-8.64-8.64,6.25-3.3c10.31-5.45,17.42-9.2,33.44-10.43l-4.68-11.29,7.04-.65c11.62-1.09,19.63-1.84,34.89,3.16v-12.22s6.73,2.08,6.73,2.08c11.16,3.44,18.85,5.81,31.03,16.27l4.67-11.29,5.43,4.51c8.98,7.44,15.18,12.57,22.44,26.91Z"/>
        <path class="cls-1" d="M164.61,32.33c36.53,0,69.6,14.81,93.54,38.74,23.94,23.94,38.75,57.01,38.75,93.54s-14.81,69.6-38.75,93.54c-23.94,23.94-57.01,38.75-93.54,38.75s-69.6-14.81-93.54-38.75c-23.94-23.94-38.75-57.01-38.75-93.54s14.81-69.6,38.75-93.54c23.94-23.94,57.01-38.74,93.54-38.74h0ZM253.25,75.98c-22.68-22.68-54.02-36.72-88.64-36.72s-65.95,14.03-88.64,36.72c-22.68,22.68-36.72,54.02-36.72,88.64s14.03,65.96,36.72,88.64c22.68,22.68,54.02,36.71,88.64,36.71s65.95-14.03,88.64-36.71c22.68-22.68,36.71-54.02,36.71-88.64s-14.03-65.95-36.71-88.64Z"/>
      </g>
    </g>
  </g>
</svg>