<?xml version="1.0" encoding="UTF-8"?>
<svg id="Layer_2" data-name="Layer 2" xmlns="http://www.w3.org/2000/svg" viewBox="0 0 329.23 329.23">
  <defs>
    <style>
      .cls-1, .cls-2 {
        fill: #fff;
      }

      .cls-1, .cls-3, .cls-4 {
        fill-rule: evenodd;
      }

      .cls-5, .cls-4 {
        fill: #039;
      }

      .cls-3 {
        fill: #00468c;
      }
    </style>
  </defs>
  <g id="Layer_1-2" data-name="Layer 1">
    <g>
      <path class="cls-3" d="M51.69,0h225.84c14.22,0,27.15,5.82,36.51,15.18,9.36,9.36,15.18,22.29,15.18,36.51v225.84c0,14.22-5.82,27.15-15.18,36.51-9.37,9.36-22.29,15.18-36.51,15.18H51.69c-14.22,0-27.15-5.82-36.51-15.18-9.36-9.37-15.18-22.29-15.18-36.51V51.69c0-14.22,5.82-27.15,15.18-36.51C24.54,5.82,37.47,0,51.69,0Z"/>
      <path class="cls-3" d="M277.53,329.23H51.69c-14.22,0-27.15-5.82-36.51-15.18-9.36-9.36-15.18-22.29-15.18-36.51V51.69c0-14.22,5.82-27.15,15.18-36.51C24.55,5.82,37.47,0,51.69,0h225.84c14.22,0,27.15,5.82,36.51,15.18,9.36,9.37,15.18,22.29,15.18,36.51v225.84c0,14.22-5.82,27.15-15.18,36.51-9.36,9.36-22.29,15.18-36.51,15.18Z"/>
      <path class="cls-1" d="M75.46,26.32h178.31c13.57,0,25.92,5.55,34.86,14.49,8.94,8.94,14.49,21.28,14.49,34.86v77.62c0,13.57-5.55,25.92-14.49,34.86-8.94,8.94-21.28,14.49-34.86,14.49h-46.56v95.71c0,3.97-1.62,7.58-4.23,10.19-2.61,2.61-6.22,4.23-10.19,4.23h-56.36c-3.97,0-7.58-1.62-10.19-4.23-2.61-2.62-4.23-6.23-4.23-10.19v-95.71h-46.56c-13.57,0-25.91-5.55-34.86-14.49-8.94-8.94-14.49-21.28-14.49-34.86v-77.62c0-13.57,5.55-25.91,14.49-34.86,8.94-8.94,21.28-14.49,34.86-14.49h0ZM253.77,33.38H75.46c-11.62,0-22.2,4.76-29.86,12.43-7.67,7.67-12.43,18.24-12.43,29.86v77.62c0,11.63,4.76,22.2,12.43,29.86,7.67,7.67,18.24,12.43,29.86,12.43h53.62v102.77c0,2.02.83,3.87,2.16,5.2,1.34,1.33,3.18,2.16,5.2,2.16h56.36c2.02,0,3.86-.83,5.19-2.16,1.34-1.34,2.16-3.17,2.16-5.19v-102.77h53.62c11.63,0,22.2-4.76,29.86-12.43,7.67-7.67,12.43-18.24,12.43-29.86v-77.62c0-11.62-4.76-22.2-12.43-29.86-7.67-7.67-18.24-12.43-29.86-12.43Z"/>
      <rect class="cls-2" x="40.53" y="40.84" width="248.18" height="146.82" rx="36.24" ry="36.24"/>
      <path class="cls-2" d="M139.17,196.02h20.22c.94,0,1.7.76,1.7,1.7v16.79c0,.93-.76,1.69-1.69,1.69h-20.22c-.94,0-1.69-.76-1.69-1.69v-16.79c0-.94.76-1.7,1.7-1.7Z"/>
      <path class="cls-2" d="M139.17,223.27h20.22c.93,0,1.69.76,1.69,1.69v16.79c0,.94-.76,1.7-1.7,1.7h-20.22c-.94,0-1.69-.76-1.69-1.69v-16.79c0-.94.76-1.7,1.7-1.7Z"/>
      <path class="cls-2" d="M139.17,250.51h20.22c.94,0,1.7.76,1.7,1.7v16.79c0,.93-.76,1.69-1.69,1.69h-20.22c-.94,0-1.69-.76-1.69-1.69v-16.79c0-.94.76-1.7,1.7-1.7Z"/>
      <path class="cls-2" d="M139.17,277.75h20.22c.93,0,1.69.76,1.69,1.69v16.79c0,.93-.76,1.69-1.69,1.69h-20.22c-.94,0-1.69-.76-1.69-1.69v-16.79c0-.94.76-1.7,1.7-1.7Z"/>
      <path class="cls-2" d="M169.84,196.02h20.22c.94,0,1.7.76,1.7,1.7v16.79c0,.94-.76,1.7-1.7,1.7h-20.22c-.94,0-1.69-.76-1.69-1.69v-16.79c0-.94.76-1.7,1.7-1.7Z"/>
      <path class="cls-2" d="M169.84,223.27h20.22c.93,0,1.69.76,1.69,1.69v16.79c0,.94-.76,1.7-1.7,1.7h-20.22c-.94,0-1.69-.76-1.69-1.69v-16.79c0-.94.76-1.7,1.7-1.7Z"/>
      <path class="cls-2" d="M169.84,250.51h20.22c.94,0,1.7.76,1.7,1.7v16.79c0,.94-.76,1.7-1.7,1.7h-20.22c-.94,0-1.69-.76-1.69-1.69v-16.79c0-.94.76-1.69,1.69-1.69Z"/>
      <path class="cls-2" d="M169.84,277.75h20.22c.93,0,1.69.76,1.69,1.69v16.79c0,.94-.76,1.7-1.7,1.7h-20.22c-.94,0-1.69-.76-1.69-1.69v-16.79c0-.94.76-1.7,1.7-1.7Z"/>
      <g>
        <path class="cls-4" d="M201.74,150.64h17.4c-.23-2.63-.9-4.59-2-5.91-1.68-2.04-3.86-3.06-6.54-3.06-2.43,0-4.46.81-6.12,2.44-1.65,1.63-2.56,3.8-2.74,6.53h0ZM219.08,159.13l5.48.72c-.85,3.18-2.45,5.66-4.77,7.41-2.33,1.75-5.3,2.64-8.92,2.64-4.55,0-8.17-1.41-10.84-4.21-2.67-2.8-4-6.74-4-11.81s1.34-9.31,4.04-12.2c2.7-2.9,6.2-4.34,10.5-4.34s7.57,1.41,10.2,4.25c2.64,2.84,3.96,6.83,3.96,11.98,0,.31,0,.78-.03,1.4h-23.27c.2,3.42,1.16,6.05,2.91,7.87,1.74,1.82,3.91,2.73,6.51,2.73,1.94,0,3.59-.51,4.96-1.54,1.38-1.02,2.46-2.66,3.26-4.9h0ZM161.96,169.24v-43.1h29.07v5.06h-23.35v13.42h20.22v5.06h-20.22v19.56h-5.72Z"/>
        <path class="cls-4" d="M214.57,90.87c0,3.99.87,6.98,2.62,8.96,1.75,1.99,3.95,2.98,6.61,2.98s4.82-.99,6.57-2.99c1.75-2,2.62-5.04,2.62-9.12,0-3.85-.88-6.77-2.64-8.75-1.75-1.99-3.94-2.98-6.55-2.98s-4.86.98-6.61,2.96c-1.75,1.98-2.62,4.96-2.62,8.94h0ZM209.15,90.86c0-5.77,1.61-10.04,4.83-12.82,2.68-2.31,5.96-3.46,9.82-3.46,4.28,0,7.8,1.4,10.52,4.21,2.72,2.8,4.08,6.68,4.08,11.63,0,4.01-.6,7.16-1.81,9.46-1.2,2.3-2.96,4.08-5.27,5.36-2.3,1.27-4.82,1.91-7.53,1.91-4.37,0-7.91-1.4-10.6-4.19-2.7-2.8-4.04-6.83-4.04-12.09h0ZM161.54,106.48v-43.1h8.55l10.19,30.51c.94,2.84,1.63,4.97,2.06,6.38.49-1.57,1.26-3.87,2.31-6.91l10.37-29.98h7.64v43.1h-5.48v-36.06l-12.58,36.06h-5.14l-12.44-36.72v36.72h-5.48Z"/>
        <path class="cls-4" d="M99.58,168.99v-31.24h4.76v4.78c1.21-2.22,2.34-3.68,3.37-4.38,1.03-.71,2.17-1.06,3.4-1.06,1.79,0,3.6.56,5.45,1.68l-1.89,4.89c-1.28-.72-2.57-1.08-3.85-1.08-1.15,0-2.19.35-3.1,1.04-.91.69-1.56,1.66-1.96,2.89-.59,1.88-.88,3.93-.88,6.17v16.32h-5.3ZM87.53,153.87l5.72,1.45c-1.19,4.68-3.34,8.25-6.44,10.7-3.1,2.46-6.89,3.69-11.38,3.69s-8.41-.94-11.32-2.84c-2.91-1.89-5.12-4.62-6.63-8.21-1.52-3.59-2.28-7.43-2.28-11.55,0-4.48.85-8.4,2.57-11.74,1.72-3.34,4.15-5.88,7.31-7.62,3.16-1.73,6.64-2.6,10.43-2.6,4.31,0,7.94,1.09,10.86,3.29,2.94,2.2,4.99,5.28,6.14,9.25l-5.6,1.32c-.99-3.13-2.45-5.42-4.34-6.84-1.9-1.43-4.28-2.15-7.16-2.15-3.3,0-6.07.79-8.29,2.38-2.22,1.58-3.78,3.72-4.68,6.39-.9,2.68-1.35,5.44-1.35,8.28,0,3.66.53,6.86,1.6,9.59,1.06,2.74,2.72,4.77,4.97,6.13,2.25,1.35,4.68,2.03,7.29,2.03,3.19,0,5.88-.92,8.09-2.76,2.21-1.85,3.7-4.57,4.48-8.21Z"/>
        <path class="cls-4" d="M99.64,106.22v-31.24h5.3v31.24h-5.3ZM99.64,69.14v-6.02h5.3v6.02h-5.3ZM56.77,106.22v-43.1h5.86l22.61,33.83v-33.83h5.48v43.1h-5.86l-22.61-33.83v33.83h-5.48Z"/>
        <rect class="cls-5" x="115.33" y="100.21" width="5.3" height="6.02"/>
        <rect class="cls-5" x="128.45" y="100.21" width="5.3" height="6.02"/>
        <rect class="cls-5" x="115.33" y="162.97" width="5.3" height="6.02"/>
        <rect class="cls-5" x="128.45" y="162.97" width="5.3" height="6.02"/>
        <rect class="cls-5" x="141.48" y="100.21" width="5.3" height="6.02"/>
        <rect class="cls-5" x="242.58" y="100.21" width="5.3" height="6.02"/>
        <rect class="cls-5" x="255.7" y="100.21" width="5.3" height="6.02"/>
        <rect class="cls-5" x="268.73" y="100.21" width="5.3" height="6.02"/>
        <rect class="cls-5" x="141.48" y="162.97" width="5.3" height="6.02"/>
        <rect class="cls-5" x="242.58" y="162.97" width="5.3" height="6.02"/>
        <rect class="cls-5" x="255.7" y="162.97" width="5.3" height="6.02"/>
        <rect class="cls-5" x="268.73" y="162.97" width="5.3" height="6.02"/>
      </g>
    </g>
  </g>
</svg>