<?xml version="1.0" encoding="UTF-8"?>
<svg id="Layer_2" data-name="Layer 2" xmlns="http://www.w3.org/2000/svg" viewBox="0 0 329.23 329.23">
  <defs>
    <style>
      .cls-1 {
        fill: #fff;
      }

      .cls-1, .cls-2 {
        fill-rule: evenodd;
      }

      .cls-2 {
        fill: #00468c;
      }
    </style>
  </defs>
  <g id="Layer_1-2" data-name="Layer 1">
    <g>
      <path class="cls-2" d="M51.69,0h225.84c14.22,0,27.15,5.82,36.51,15.18,9.36,9.36,15.18,22.29,15.18,36.51v225.84c0,14.22-5.82,27.15-15.18,36.51-9.37,9.36-22.29,15.18-36.51,15.18H51.69c-14.22,0-27.15-5.82-36.51-15.18-9.36-9.37-15.18-22.29-15.18-36.51V51.69c0-14.22,5.81-27.15,15.18-36.51C24.54,5.82,37.47,0,51.69,0Z"/>
      <path class="cls-1" d="M315.11,164.86h-79.25v46.41h-69.22c-8.9,4.28-17.53,8.46-17.53,9.56,0,1.22,9.24,5.74,18.47,10.25,13.04,6.37,26.09,12.75,26.09,22.41s-12.99,16.42-25.98,23.03c-9.29,4.72-18.58,9.45-18.58,10.98,0,1.31,9.25,5.88,18.5,10.44,10.45,5.16,20.91,10.32,24.63,17.17h-20.51c-3.02-1.56-6.56-3.31-10.1-5.06-13.03-6.43-26.06-12.87-26.06-22.55s12.99-16.42,25.98-23.03c9.29-4.73,18.58-9.45,18.58-10.98,0-1.22-9.24-5.74-18.47-10.25-13.04-6.37-26.09-12.75-26.09-22.41,0-3.59,1.84-6.72,4.83-9.56h-34.95v46.41H14.12v-13.54h77.79v-46.41h31.21v-59.95c0-3.11,1.27-5.94,3.31-7.99,2.05-2.05,4.87-3.31,7.99-3.31h2.53v-18.45c0-13.09,9.21-32.84,21.47-38.11V14.12h12.4v55.8c12.26,5.27,21.47,25.03,21.47,38.11v18.45h2.53c3.11,0,5.94,1.27,7.99,3.31v.03c2.04,2.05,3.31,4.86,3.31,7.96v59.95h16.21v-46.42h92.79v13.54h0ZM136.65,197.73h55.92v-57.72h-55.92v57.72Z"/>
    </g>
  </g>
</svg>