<?xml version="1.0" encoding="UTF-8"?>
<svg id="Layer_2" data-name="Layer 2" xmlns="http://www.w3.org/2000/svg" viewBox="0 0 329.23 329.23">
  <defs>
    <style>
      .cls-1 {
        fill: #fff;
      }

      .cls-1, .cls-2 {
        fill-rule: evenodd;
      }

      .cls-2 {
        fill: #00468c;
      }
    </style>
  </defs>
  <g id="Layer_1-2" data-name="Layer 1">
    <g>
      <path class="cls-2" d="M51.69,0h225.84c14.22,0,27.15,5.82,36.51,15.18,9.36,9.36,15.18,22.29,15.18,36.51v225.84c0,14.22-5.82,27.15-15.18,36.51-9.37,9.36-22.29,15.18-36.51,15.18H51.69c-14.22,0-27.15-5.82-36.51-15.18-9.36-9.37-15.18-22.29-15.18-36.51V51.69c0-14.22,5.82-27.15,15.18-36.51C24.54,5.82,37.47,0,51.69,0Z"/>
      <path class="cls-1" d="M14.12,208.18h90.44l18.76-10.77-36.76-63.67,16.31-9.42-6.47-11.2L40.28,15.91c3.61-1.16,7.44-1.79,11.42-1.79h3.88l45.97,79.8,19.01-10.97L80.92,14.12h16.13l35.68,61.8h.01s3.51,6.07,3.51,6.07l9.99,17.3,16.3-9.41,3.52,6.09,33.35,57.76,42.36-24.32v78.77h73.35v69.36c0,10.33-4.23,19.72-11.04,26.53-6.81,6.81-16.21,11.04-26.53,11.04H51.69c-10.33,0-19.72-4.23-26.53-11.04-6.81-6.81-11.04-16.21-11.04-26.53v-69.36h0ZM170.65,186.5l-37.55,21.68h94.55v-54.4l-57,32.72h0ZM153.28,111.48h0s-43.37,25.04-43.37,25.04l-4.12,2.38,29.73,51.5,35.09-20.15,16.54-9.55-29.78-51.59-4.1,2.37h0ZM134.04,106.32l-6.47-11.2-19,10.97,6.47,11.2,19-10.97Z"/>
      <path class="cls-2" d="M249.18,273.48c-2.37,13.41-7.38,23.05-15.55,28.15-8.34,5.21-19.17,5.32-32.89-.52l5.51-12.96c9.1,3.87,15.62,4.21,19.93,1.51,4.49-2.8,7.43-9.2,9.1-18.61l13.9,2.43Z"/>
      <path class="cls-2" d="M233.42,246.19c-2.37,13.41-7.38,23.05-15.55,28.15-8.34,5.21-19.17,5.32-32.89-.52l5.51-12.96c9.1,3.87,15.62,4.21,19.93,1.51,4.49-2.8,7.43-9.2,9.1-18.61l13.9,2.43Z"/>
      <path class="cls-2" d="M217.66,218.89c-2.37,13.41-7.38,23.05-15.55,28.15-8.34,5.21-19.17,5.32-32.89-.52l5.51-12.96c9.1,3.87,15.62,4.21,19.93,1.51,4.48-2.8,7.43-9.2,9.1-18.61l13.9,2.43Z"/>
    </g>
  </g>
</svg>