<?xml version="1.0" encoding="UTF-8"?>
<svg id="Layer_2" data-name="Layer 2" xmlns="http://www.w3.org/2000/svg" viewBox="0 0 329.23 329.23">
  <defs>
    <style>
      .cls-1 {
        fill: #fff;
      }

      .cls-1, .cls-2 {
        fill-rule: evenodd;
      }

      .cls-2 {
        fill: #00468c;
      }
    </style>
  </defs>
  <g id="Layer_1-2" data-name="Layer 1">
    <g>
      <path class="cls-2" d="M51.69,0h225.84c14.22,0,27.15,5.82,36.51,15.18,9.36,9.36,15.18,22.29,15.18,36.51v225.84c0,14.22-5.82,27.15-15.18,36.51-9.37,9.36-22.29,15.18-36.51,15.18H51.69c-14.22,0-27.15-5.82-36.51-15.18-9.36-9.37-15.18-22.29-15.18-36.51V51.69c0-14.22,5.82-27.15,15.18-36.51C24.54,5.82,37.47,0,51.69,0Z"/>
      <path class="cls-1" d="M14.12,228.65h300.99v44.38c-6.01-11.85-12.19-23.04-21.34-23.04-9.72,0-16.09,12.63-22.46,25.26-4.41,8.74-8.82,17.48-9.89,17.48s-5.48-8.74-9.89-17.48c-6.37-12.63-12.75-25.26-22.46-25.26s-16.09,12.63-22.46,25.26c-4.41,8.74-8.82,17.48-9.89,17.48s-5.48-8.74-9.89-17.48c-6.37-12.63-12.74-25.26-22.46-25.26s-16.09,12.63-22.46,25.26c-4.41,8.74-8.82,17.48-9.89,17.48s-5.48-8.74-9.89-17.48c-6.37-12.63-12.75-25.26-22.46-25.26s-16.09,12.63-22.46,25.26c-4.41,8.74-8.82,17.48-9.89,17.48s-5.48-8.74-9.89-17.48c-6.37-12.63-12.75-25.26-22.46-25.26-8.92,0-15.02,10.64-20.89,22.15v-43.49h0ZM310.84,294.87c-2.51-4.01-4.85-8.64-7.18-13.28-4.41-8.74-8.82-17.48-9.89-17.48s-5.48,8.74-9.89,17.48c-6.37,12.63-12.74,25.26-22.46,25.26s-16.09-12.63-22.46-25.26c-4.41-8.74-8.82-17.48-9.89-17.48s-5.48,8.74-9.89,17.48c-6.37,12.63-12.74,25.26-22.46,25.26s-16.09-12.63-22.46-25.26c-4.41-8.74-8.82-17.48-9.89-17.48s-5.48,8.74-9.89,17.48c-6.37,12.63-12.74,25.26-22.46,25.26s-16.09-12.63-22.46-25.26c-4.41-8.74-8.82-17.48-9.89-17.48s-5.48,8.74-9.89,17.48c-6.37,12.63-12.74,25.26-22.46,25.26s-16.09-12.63-22.46-25.26c-4.41-8.74-8.82-17.48-9.89-17.48s-5.48,8.74-9.89,17.48c-2.26,4.48-4.52,8.96-6.93,12.88,1.81,3.56,4.18,6.79,6.98,9.6,6.81,6.81,16.21,11.04,26.53,11.04h225.84c10.33,0,19.72-4.23,26.53-11.04,2.69-2.69,4.99-5.79,6.77-9.2Z"/>
      <path class="cls-1" d="M202.45,102.19h-75.13v104.83h75.13v-104.83h0ZM14.12,111.14h79.66v-8.07h19.43v-15h103.36v133.07h-103.36v-87.81h-19.43v-8.07H14.12v-14.12h0ZM153.93,66.2c-1.57.42-2.74,1.58-3.25,3.01h-54.22v26.52h11.67v-14.85h113.51v14.85h11.67v-26.52h-55.61c1.35-1.16,2-3.03,1.51-4.85h0c-.68-2.53-3.3-4.05-5.83-3.37l-19.45,5.21h0ZM153.93,49.99l19.45-5.21c2.53-.68,5.15.84,5.83,3.37h0c.68,2.53-.84,5.16-3.37,5.83l-19.45,5.21c-2.53.68-5.15-.84-5.83-3.37h0c-.68-2.53.84-5.16,3.37-5.83h0ZM153.93,33.79l19.45-5.21c2.53-.68,5.15.84,5.83,3.37h0c.68,2.53-.84,5.16-3.37,5.83l-19.45,5.21c-2.53.68-5.15-.84-5.83-3.37h0c-.68-2.53.84-5.16,3.37-5.83h0ZM153.93,17.58l12.92-3.46h11.57c.35.47.63,1.02.79,1.62h0c.68,2.53-.84,5.16-3.37,5.83l-19.45,5.21c-2.53.68-5.15-.84-5.83-3.37h0c-.68-2.53.84-5.16,3.37-5.83Z"/>
    </g>
  </g>
</svg>